<?xml version="1.0" encoding="UTF-8" standalone="no"?>
<svg
   xmlns:dc="http://purl.org/dc/elements/1.1/"
   xmlns:cc="http://creativecommons.org/ns#"
   xmlns:rdf="http://www.w3.org/1999/02/22-rdf-syntax-ns#"
   xmlns:svg="http://www.w3.org/2000/svg"
   xmlns="http://www.w3.org/2000/svg"
   xmlns:sodipodi="http://sodipodi.sourceforge.net/DTD/sodipodi-0.dtd"
   xmlns:inkscape="http://www.inkscape.org/namespaces/inkscape"
   width="600"
   height="307"
   version="1.1"
   id="svg66"
   sodipodi:docname="favicon.svg"
   inkscape:version="0.92.5 (2060ec1f9f, 2020-04-08)">
  <metadata
     id="metadata72">
    <rdf:RDF>
      <cc:Work
         rdf:about="">
        <dc:format>image/svg+xml</dc:format>
        <dc:type
           rdf:resource="http://purl.org/dc/dcmitype/StillImage" />
        <dc:title></dc:title>
      </cc:Work>
    </rdf:RDF>
  </metadata>
  <defs
     id="defs70" />
  <sodipodi:namedview
     pagecolor="#ffffff"
     bordercolor="#666666"
     borderopacity="1"
     objecttolerance="10"
     gridtolerance="10"
     guidetolerance="10"
     inkscape:pageopacity="0"
     inkscape:pageshadow="2"
     inkscape:window-width="1366"
     inkscape:window-height="715"
     id="namedview68"
     showgrid="false"
     inkscape:zoom="0.98523545"
     inkscape:cx="411.35603"
     inkscape:cy="147.11035"
     inkscape:window-x="0"
     inkscape:window-y="25"
     inkscape:window-maximized="1"
     inkscape:current-layer="svg66" />
  <path
     d="m 24.038138,133.09774 1.385313,88.5037 -0.88296,63.16938 c 0,0 2.98431,-1.17266 3.562682,0.85266 l 1.081228,-1.09613 43.330627,-4.14108 -14.280561,-149.31286 z m 38.368197,-1.82657 33.815215,-1.58358 24.68044,144.25803 -43.894099,5.35943 z m 46.131085,-1.9796 34.33248,-1.46184 36.007,139.70603 -35.94638,4.84168 c 0,0 -2.99921,-0.9898 -4.52168,0.80695 z m 39.58559,-1.52246 29.49129,-1.55278 46.46699,135.47355 -39.50906,5.08515 z m 270.24647,2.13661 76.84125,97.71999 3.80616,-0.15204 15.17993,-3.63871 -75.66909,-94.75656 z m 22.53387,-1.67451 17.61567,-0.35031 76.52176,91.17896 -17.08301,3.71474 z m 22.38083,-0.76123 19.45814,-1.26359 76.3543,88.458 -18.40722,3.66902 z m 22.83797,-0.91427 17.67629,-0.60919 76.38461,83.87471 -18.59007,4.43075 z"
     id="path2"
     inkscape:connector-curvature="0"
     style="fill:#f3c27f;stroke-width:0.49688804" />
  <g
     id="g20"
     style="fill:#00013a"
     transform="matrix(0.49688804,0,0,0.49688804,2.22325,2.286986)">
    <path
       d="m 81.898,248.553 11.276,-13.022 245.802,-6.618 -2.604,11.827 z m 267.802,-7.967 276.658,-5.178 -4.566,14.37 -266.73,9.192 z m 316.216,10.714 284.257,-7.415 3.616,-15.137 -300.312,5.454 c 0,0 20.805,9.346 12.44,17.098 m -125.63,52.1 60.056,-2.666 c 0,0 18.446,1.195 21.326,23.042 0,0 1.164,22.245 -8.18,27.332 l -73.08,6.036 -7.293,-0.123 c 0,0 -8.702,-4.504 -11.03,-28.68 0,0 4.75,-26.535 18.2,-24.942"
       id="path4"
       inkscape:connector-curvature="0" />
    <path
       d="m 625.163,237.216 -12.747,54.204 c 0,0 8.396,15.84 24.91,14.922 0,0 17.435,-1.5 19.304,-9.192 l 10.602,-49.822 c 0,0 -7.078,8.06 -23.257,4.167 0,0 -16.025,-3.31 -18.814,-14.28"
       id="path6"
       inkscape:connector-curvature="0" />
    <path
       d="m 656.723,297.272 50.987,-1.042 6.435,-24.513 c 0,0 4.688,7.63 20.713,10.94 0,0 21.663,4.688 23.84,-2.114 l -5.24,21.786 c 0,0 8.334,12.87 4.75,27.73 0,0 -2.176,13.574 -20.04,17.986 l -77.43,1.47 c 0,0 -15.106,15.382 -26.474,3.953 l -14.8,-10.602 c 0,0 7.752,-32.326 -9.713,-38.7 0,0 -5.3,-5.056 -16.546,-3.432 l -21.357,0.827 c 0,0 3.86,-40.844 40.783,-34.134 l 4.474,1.593 -4.596,22.52 c 0,0 9.437,16.087 24.9,14.922 0,0 15.75,0 19.304,-9.192 m -120.42,-14.705 -5.423,22.582 c 0,0 -2.9,3.095 -5.056,7.476 l -1.87,5.515 -3.095,-0.735 -11.92,49.76 c 0,0 13.635,6.527 19.1,4.045 l 3.524,-14.616 c 0,0 -11.827,-9.62 -7.323,-35.145 0,0 3.738,-13.206 10.602,-16.975 0,0 11.245,-1.655 15.106,-1.808 l 3.922,-16.424 c 0,0 -6.772,1.103 -17.557,-3.677 m -53.622,10.42 9.254,-38.485 12.287,-1.38 -10,41.55 z m -1.838,-171.896 64.775,82.73 c 0,0 4.228,-0.613 5.577,-1.103 l -62.937,-80.25 c 0,0 -4.35,-2.267 -7.415,-1.38"
       id="path8"
       inkscape:connector-curvature="0" />
    <path
       d="m 467.668,103.62 c 0,0 6.527,-0.06 1.808,19.55 l 6.312,-2.543 c 0,0 7.17,-23.103 -8.12,-17.006 m 93.455,106.63 5.077,-21.151 5.76,1.38 -4.903,20.376 z m -180.783,-21.45 19.396,23.103 89.104,-0.306 6.74,-30.396 -22.613,1.624 -11.552,0.5 5.485,-18.23 -9.774,-4.504 2.82,-11.797 -7.7,-4.045 0.46,-6.404 -12.348,-5.117 -4.412,-6.496 2.972,-12.318 -12.84,-5.24 -15.586,-23.275 -7.17,-1.716 z m 44.737,68.33 12.93,13.942 -5.27,24.268 33.736,-2.758 6.373,-3.9 8.242,-34.38 z"
       id="path10"
       inkscape:connector-curvature="0" />
    <path
       d="m 453.88,211.478 7.293,-28.098 34.165,-2.084 -6.772,30.396 z m 286.187,-0.308 7.384,-30.794 -21.57,-7.354 -1.593,-6.894 -12.685,-3.585 -6.312,-16.7 -9.62,-2.88 -3.9,-17.74 -7.2,-3.9 -8.06,-13.88 -8.6,-4.78 -4.964,-10.97 -9.1,-0.552 -17.22,103.32 14.86,17.128 z m -156.882,63.734 -31.315,-23.257 69.923,-1.93 -15.443,10.112 10.816,9.13 c 0,0 -18.23,-7.63 -33.98,5.944 m 180.474,76.9 43,-2.696 -26.23,-24.206 -21.878,0.705 c 0,0 -0.552,6.934 -5.852,15.454 z"
       id="path12"
       inkscape:connector-curvature="0" />
    <path
       d="m 802.268,345.072 6.7,-18.997 2.942,-3.095 6.74,-19.028 2.543,-1.532 3.37,-7.354 8.396,-7.752 4.412,-20.652 3.4,-5.148 -13.697,-13.053 -10.48,0.735 -8.212,11.613 -4.78,22.184 -14.034,17.772 -5.73,19.273 -3.4,5.148 z m 61.895,-54.234 -4.8,20 -11.398,11.368 -8.242,22.98 -8.6,10.97 -7.752,32.296 37.198,-3.524 4.045,-19.12 13.053,-15.84 6.098,-18.63 4.994,-11.827 z"
       id="path14"
       inkscape:connector-curvature="0" />
    <path
       d="m 835.054,256.213 174.378,-7.507 -6.2,-5.822 -173,6.22 z m 169.446,200.7 167.36,-34.686 -8.64,-4.8 -163.225,35.697 z M 43.903,263.26 l 68.82,-4.075 0.276,-10.265 -69.494,0.123 z m 77.217,-3.676 68.054,-3.187 -0.858,-10 -68.82,1.93 z m 92.84,-3.984 69.095,-2.942 -2.543,-9.836 -67.686,1.655 z m 79.667,-3.064 59.352,-3.125 -3.524,-8.978 -59.658,0.858 z M 285.354,551.9 454.492,530.114 c 0,0 -5.086,-8.273 -11.736,-7.7 l -161.723,20.284 c 0,0 5.7,5.73 4.32,9.192 m -232.257,26.667 84.998,-10.5 c 0,0 8.304,-2.88 14.585,-1.93 l 86.408,-11.797 -0.337,-7.7 -186.9,23.502 c 0,0 1.5,7.415 1.256,8.426 m -7.67,-350.85 32.878,-2.42 11.184,-9.254 18.875,-0.613 -1.256,-3.83 -63.335,1.593 z M 38.696,41.105 153.508,44.261 154.55,32.035 40.045,28.665 Z m 131.144,2.756 111.9,4.075 0.5,-11 -112.3,-3.646 z m 515.075,37.996 82.363,5.117 1.195,-7.293 c 0,0 -1.318,-5.76 -4.964,-6.373 l -72.68,-4.688 c 0,0 -7.415,3.646 -5.914,13.237"
       id="path16"
       inkscape:connector-curvature="0" />
    <path
       d="m 771.014,87.688 80.862,5.577 c 0,0 -2.666,-11.5 -12.195,-12.44 l -60.976,-5.944 c 0,0 -7.23,0.705 -7.7,12.808 m -472.18,232.258 6.618,-18.507 -2.513,-7.63 -10.112,-0.827 z m -79.973,61.283 19.304,-1.348 1.777,10.755 -26.842,3.3 z"
       id="path18"
       inkscape:connector-curvature="0" />
  </g>
  <g
     id="g32"
     style="fill:#033d8f"
     transform="matrix(0.49688804,0,0,0.49688804,2.22325,2.286986)">
    <path
       d="m 550.4,329.752 c 0,14.708 -6.343,26.658 -14.156,26.627 -7.813,0 -14.156,-11.92 -14.126,-26.658 0,-14.708 6.343,-26.627 14.156,-26.627 7.813,0 14.126,11.95 14.126,26.658 m 73.844,-88.246 -11.644,50.098 c 0,0 1.4,6.067 10.387,11.06 l 12.747,-53.1 c 0,0 -7.813,-4.75 -11.5,-8.06"
       id="path22"
       inkscape:connector-curvature="0" />
    <path
       d="m 714.022,271.534 -7.17,27.577 c 0,0 4.137,5.332 10.48,7.7 l 6.68,-27.73 c 0,0 -8.273,-4.535 -10,-7.538 m -81.822,79.36 c -10.173,-18.722 5.975,-31.652 5.975,-31.652 l -71.823,-57.973 -14.524,-9.468 -70.658,2.574 -8.825,34.502 c 20.6,11.46 31.713,3.554 31.713,3.554 l 4.32,-2.206 0.153,3.83 10.48,10.663 0.06,6.527 -6.527,2.237 -11.284,47.209 c 3.493,5.7 15.8,10.847 15.8,10.847 8.212,1.96 19.304,-3.524 19.304,-3.524 l 3.77,-8.855 3.217,2.42 c 15.627,14.064 23.716,2.972 23.716,2.972 l 0.674,-9.62 -27.18,2.42 c -4.412,0.306 -10.57,-1.164 -10.57,-1.164 -9.652,-7.2 -7.078,-31.56 -7.078,-31.56 3.125,-22.03 17.527,-21.02 17.527,-21.02 l 52.764,-2.788 c 0,0 -6.25,1.226 2.176,0 8.457,-1.256 17.22,5.2 17.22,5.2 15.474,12.4 6.864,36.922 6.864,36.922 z m -60.363,-49.24 -13.942,-0.613 4.566,-18.997 11.95,8.855 z m -63.723,-90.176 c 0,0 -14.095,-20.897 -11.184,-26.3 l -1.348,-3.983 -20.346,-26.045 -8.06,-0.306 c 0,0 -16.853,-14.646 -3.983,-27.424 l -0.03,-1.624 c 0,0 -21.142,-3.462 -9.652,-15.75 0,0 8.855,-8.06 17.62,-7.17 0,0 6.312,-0.92 6.098,5.117 l -1.44,12.685 c 0,0 18.017,-2.176 26.045,13.574 0,0 10.908,7.1 14.554,17.343 l 35.207,39.803 3.003,-7.415 c 0,0 7.354,4.994 13.114,6.404 0,0 12.502,0.552 13.9,-0.306 l -2.022,6.802 c 0,0 6.925,3.3 -0.337,6.435 l -2.022,8.488 z M 380.34,188.803 399.736,211.906 426.086,109.166 410.5,85.88 403.33,84.164 Z"
       id="path24"
       inkscape:connector-curvature="0" />
    <path
       d="m 436.72,126.908 -22.92,84.048 6.435,0.43 20.652,-76.97 z m 15.32,17.772 7.722,4.014 -2.85,11.797 -13.85,50.956 -9.346,0.46 z m 184.46,49.64 9.04,9.774 22.245,-101.575 -4.994,-10.97 -9.07,-0.552 z m 40.14,-87.022 -22.337,104.27 8.702,-0.092 21.694,-90.3 z m 13.482,16.24 5.67,19.273 -15.872,68.36 -9.836,0.337 z m 15.32,22.368 -15.658,65.173 11.245,0.52 10.694,-48.995 z"
       id="path26"
       inkscape:connector-curvature="0" />
    <path
       d="m 721.682,166.13 -10.97,45.686 7.047,0.06 8.212,-38.73 -1.593,-6.925 m -24.45,98.88 3.554,-14.892 4.872,0.092 -3.953,16.424 z m -235.63,-92.537 -3.095,10.663 11.52,-0.5 -1.226,-8.457 z m 93.455,128.387 3.953,-16.424 12.593,6.28 -2.604,10.786 z m 185.99,45.654 17.312,16.087 2.574,-10.755 -10.97,-10.786 -8.917,5.454 m 64.653,-85.804 28.986,5.883 3.4,-5.178 -13.666,-13.022 -10.5,0.735 z m -11.95,31.876 28.16,2.42 8.396,-7.752 -29.354,-4.35 z m 62.814,18.078 24.972,2.206 -20.162,-22.215 z M 992.242,453.54 c 0,0 10.755,-1.747 12.195,3.462 l -0.92,12.808 c 0,0 -15.045,3.983 -11.276,-16.27 M 81.898,248.553 l 11.276,-13.022 -2.36,-19.58 -12.593,9.468 z M 51.87,569.977 c 0,0 0,13.574 -4.198,17.435 0,0 -9.437,1 -6.128,-15.045 0,0 5.3,-8.488 10.326,-2.4 m 230.114,-5.812 c 0,0 8.15,-29.538 -7.997,-18.752 0,0 -6.894,15.167 7.997,18.752"
       id="path28"
       inkscape:connector-curvature="0" />
    <path
       d="m 118.36,215.46 61.558,-0.95 -0.398,-3.9 -61.558,0.95 z m 84.57,-1.225 63.458,-1.042 -1.5,-4.964 -61.803,1.96 z m 76.296,-1.532 55.92,-1.226 -1.38,-3.3 -56.104,0.9 z m -200.698,12.563 -0.95,-11.9 29.752,-1.808 1.256,3.83 -17.496,0.398 z m 42.897,44.43 4.075,39.496 -6.588,7.1 -3.708,-41.06 4.72,-3.738 m 172.478,-15.3 -6.16,9.897 12.502,54.05 6.618,-18.507 z"
       id="path30"
       inkscape:connector-curvature="0" />
  </g>
  <g
     id="g44"
     style="fill:#8ad7e9"
     transform="matrix(0.49688804,0,0,0.49688804,2.22325,2.286986)">
    <path
       d="m 540.594,357.33 69.524,-4.75 c 0,0 10.05,-5.7 10.5,-12.103 l -72.405,3.217 c 0,0 -5.025,11.827 -7.63,13.635 m 125.333,-18.08 89.686,-2.88 c 0,0 -7.844,10.05 -20.5,10.816 l -74.335,2.237 z M 354.9,258.97 l 266.76,-9.192 1.164,-4.872 -269.724,6.864 z m 311.006,-7.66 284.257,-7.415 2.45,-3.493 -284.96,4.8 z"
       id="path34"
       inkscape:connector-curvature="0" />
    <path
       d="m 662.545,341.395 c -2.635,11.03 -12.502,18.17 -22,15.872 -9.468,-2.267 -15.014,-13.084 -12.38,-24.145 2.666,-11.03 12.502,-18.14 22,-15.872 9.498,2.268 15.045,13.084 12.38,24.145 m -229.807,-46.268 8.978,-39.62 34.532,-1.47 -9.744,38.332 z m 278.526,-13.175 -8.6,-2.604 5.883,-28.986 23.93,-0.214 -3.3,16.025 c 0,0 -13.574,-2.176 -14.493,3.86 z m -6.74,-15.322 -15.014,-5.24 1.838,-9.866 17.128,-1.318 z m 56.687,96.214 46.544,-4.014 1.072,-8.978 -45.042,2.206 z"
       id="path36"
       inkscape:connector-curvature="0" />
    <path
       d="m 746.195,393.8 34.134,-2.114 3.677,-17.557 13.206,-14.217 -35.942,2.758 -3.738,-2.513 -7.323,12.348 z m 37.382,-71.698 28.527,0.9 2.114,-6.527 -29.814,-2.298 z m 12.87,-29.416 28.16,2.42 -5.914,8.886 -29.078,-3.187 z m 26.954,95.907 37.23,-3.524 4.045,-19.12 5.025,-7.476 -38.546,-2.206 z m 16.25,-43.203 38.945,2.85 1.318,-7.844 -38.546,-2.176 z m 6.128,-18.692 37.382,2.482 2.758,-4.75 -37.995,-2.114 z m 157.801,143.082 31.683,-7.6 c 0,0 10.387,4.137 16.607,-3.585 l 34.87,-7.384 14.034,-2.053 21.326,-5.178 c 0,0 11.827,2.85 18.783,-3.616 l 31.315,-6.067 c 0,0 5.3,-6.312 -0.368,-12 l -88.154,18.967 -79.176,15.72 z m -954.16,119.807 76.694,-9.805 c 0,0 9.407,6.067 20.284,5.975 0,0 12.624,-5.117 15.933,-7.568 l 71.7,-9.376 c 0,0 6.067,-9.407 5.117,-14.524 l -86.408,11.827 c 0,0 -9.774,-2.36 -14.585,1.93 l -84.998,10.5 c 0,0 -5.577,7.354 -3.738,11.03 m 232.565,-25.42 65.725,-7.017 c 0,0 19.886,7.507 28.128,-1.93 l 72.466,-10.265 c 0,0 10.94,-9.315 6.28,-14.77 L 285.446,551.96 Z M 505.05,362.23 l 0.858,-3.585 c 0,0 12.747,13.635 30.58,4.903 l -0.98,4.106 c 0,0 -17.527,9.62 -30.457,-5.423"
       id="path38"
       inkscape:connector-curvature="0" />
    <path
       d="m 542.126,358.86 c 0,0 11.858,16.148 24.727,5.393 l 0.766,-3.064 c 0,0 -12.532,8.12 -22.123,-3.953 0,0 -3.28,0.03 -3.37,1.624 m -513.85,80.28 18.14,-3.248 -1.747,-49.24 -9.162,20.04 z"
       id="path40"
       inkscape:connector-curvature="0" />
    <path
       d="m 234.5,363.763 10.57,50.833 -27.608,4.228 -4.32,-24.9 5.76,-12.716 z M 474.716,285.63 c 0,0 23,9.315 31.07,2.85 l -1.072,4.35 c 0,0 -10,6.557 -31.836,-4.106 z"
       id="path42"
       inkscape:connector-curvature="0" />
  </g>
  <g
     id="g50"
     style="fill:#033d8f"
     transform="matrix(0.49688804,0,0,0.49688804,2.22325,2.286986)">
    <path
       d="m 93.235,235.378 245.802,-6.618 -3.37,11.674 290.507,-5.117 c 0,0 6.7,-5.423 27.362,-1 l 300.343,-5.454 -16.577,-19.18 -602.28,1.838 -244.147,4.32 z m 565.94,61.588 c 0,0 8.733,15.658 8.794,22.184 l 90.973,-1.47 c 0,0 -0.98,-11.644 -5.515,-15.443 l -1.226,5.148 c 0,0 -8.518,8.242 -23.655,3.524 0,0 -19.12,-6.22 -21.602,-11.705 l 0.735,-3.064 z"
       id="path46"
       inkscape:connector-curvature="0" />
    <path
       d="m 540.287,303.4 60.056,-2.666 c 0,0 13.85,2.237 17.25,10.663 0,0 3.524,5.73 3.28,8.917 l -71.24,2.972 c 0,0 -1.808,-15.106 -9.346,-19.886 m 397.108,-93.76 28.16,-1.93 c 0,0 11.03,3.738 9.192,13.605 l 8.06,11.705 24.176,0.95 2.88,3.922 -0.43,10.755 -6.2,-5.822 -51.17,2.9 3.677,-17.588 z"
       id="path48"
       inkscape:connector-curvature="0" />
  </g>
  <g
     id="g62"
     style="fill:#f3c27f"
     transform="matrix(0.49688804,0,0,0.49688804,2.22325,2.286986)">
    <path
       d="m 667.448,247.328 c -1.226,5.086 -11.644,6.986 -23.257,4.167 -11.613,-2.788 -20.04,-9.162 -18.814,-14.28 1.226,-5.118 11.613,-6.956 23.226,-4.167 11.644,2.788 20.04,9.162 18.844,14.28 m 91.31,33.092 c -0.98,4.106 -11.674,5.056 -23.87,2.145 -12.164,-2.942 -21.234,-8.64 -20.254,-12.747 0.98,-4.107 11.674,-5.086 23.84,-2.145 12.195,2.942 21.265,8.64 20.284,12.747 m -667.36,-56.38 244.546,-4.75 -0.858,-7.813 -244.147,4.32 z m 246.66,-1.225 605.13,-6.465 -7.446,-7.875 -600.594,3.187 z"
       id="path52"
       inkscape:connector-curvature="0" />
    <path
       d="m 664.384,307.384 48.872,-2.36 -6.2,-5.852 0.735,-3.064 -51.017,1.042 z M 615.05,308.6 c 0,0 -2.88,-8.304 -14.646,-7.875 l -60.087,2.666 c 0,0 5.24,5.332 6.68,8.396 z m -51.475,-26.342 c -0.95,3.983 -10,5.2 -20.192,2.758 -10.192,-2.442 -17.7,-7.66 -16.76,-11.644 0.98,-3.953 10.02,-5.178 20.223,-2.727 10.173,2.45 17.68,7.66 16.73,11.613 M 38.694,41.114 l 56.686,1.134 11.95,169.475 -63.335,1.593 z"
       id="path54"
       inkscape:connector-curvature="0" />
    <path
       d="m 102.734,42.952 50.68,1.318 26.26,166.4 -61.558,0.95 z m 67.104,0.918 56.962,2.3 38.117,162.183 -62.722,1.195 z m 63.427,2.76 48.535,1.348 50.588,159.762 -54.633,1.532 z m 451.648,35.236 42.254,2.543 106.508,125.996 -41.457,0.9 z m 46.88,3.064 34.318,1.716 109.5,122.38 -37.597,0.735 z m 41.67,3.37 39.956,3.095 107.061,116.905 -35.574,1.226 z m 44.125,3.678 34.716,2.36 113.28,113.494 -41.06,1.532 z m -434.184,83.037 5.178,-21.54 -28.037,1.4 z m 75.99,-19.305 15.872,-0.52 20.315,26.045 -22.613,1.624 -1.226,-8.457 -7.2,-1.716 2.36,-7.568 -9.774,-4.535 z m 59.137,-2.757 78.288,-2.9 25.647,31.13 -78.962,1.134 z"
       id="path56"
       inkscape:connector-curvature="0" />
    <path
       d="m 480.538,119.555 66.86,-36.585 14.892,19.304 -58.3,32.694 c 0,0 -8.426,-12.348 -23.44,-15.412 m 20.517,240.837 3.462,3.554 11.736,-48.75 -3.86,-2.022 z m 18.078,-49.333 7.446,-37.8 c 0,0 1.348,5.73 4.412,6.465 l -7.752,32.326 z m 93.455,-19.6 12.532,-52.1 c 0,0 2.604,6.067 4.657,6.557 L 617.47,297.23 c 0,0 -4.504,-1.624 -4.872,-5.8"
       id="path58"
       inkscape:connector-curvature="0" />
    <path
       d="m 706.974,299.1 4.504,3.8 6.65,-27.7 -3.983,-3.677 z M 581.04,188.803 c -0.43,1.808 -6.557,1.87 -13.666,0.184 -7.1,-1.716 -12.532,-4.566 -12.103,-6.373 0.429,-1.807 6.557,-1.9 13.666,-0.184 7.109,1.716 12.532,4.566 12.103,6.373 m -114.597,-63.12 67.318,85.764 4.596,-0.52 c 0,0 2.727,-6.28 7.415,-7.17 l -64.775,-82.73 c 0,0 -7.6,-0.582 -14.554,4.657 m -1.533,-0.308 c 0,0 2.666,-12.808 -4.382,-18.967 0,0 17.925,-11.98 8.978,16.8 z m 85.183,84.876 2.176,-12.502 -2.82,-3.524 1.9,-2.82 3.003,-7.384 5.025,2.82 -5.73,23.87 z m 206.52,123.8 31.223,-1.195 -7.384,-7.722 -21.878,0.705 z m 186.604,-117.672 31,-1.5 c 0,0 -4.382,-6.496 -6.588,-6.465 h -2.176 l -28.006,1.44 z m 9.498,24.206 57.054,-2.574 -2.85,-3.953 -52.6,-0.153 z M 771.015,87.688 c 0,0 3.953,-8.55 11.184,-8.15 l 55.86,4.72 c 0,0 8.58,1.532 11.705,8.794 l 2.114,0.214 c 0,0 -1.348,-10.08 -12.195,-12.44 l -62.048,-5.944 c 0,0 -6.65,1.685 -6.618,12.808 m -4.904,-0.92 c 0,0 -0.43,-9.6 -5.546,-9.744 l -68.88,-4.596 c 0,0 -2.758,-0.95 -6.067,8.304 l -1.47,-0.643 c 0,0 0.582,-13.697 9.683,-12.042 l 69.555,5.3 c 0,0 8.733,3.187 2.727,13.42 M 39.92,33.147 154.548,35.997 154.425,31.891 39.92,28.52 Z m 129.918,3.677 112.085,4.412 0.245,-4.3 -112.3,-3.646 z"
       id="path60"
       inkscape:connector-curvature="0" />
  </g>
  <path
     d="m 586.15118,213.9439 c -0.10633,-0.6698 -0.77664,-3.22778 -5.00864,-4.56739 l -76.76523,-84.69756 0.79155,-4.36963 -2.34531,-2.84716 -10.93154,0.0149 -4.5982,-5.45086 a 4.7850319,4.7850319 0 0 0 -0.0457,-3.04493 c -0.68571,-1.9642 -2.5888,-3.6238 -5.63323,-4.9331 l -55.12977,-55.3583 c -0.27428,-1.263585 -1.75103,-6.577308 -7.06425,-7.339033 L 389.1077,38.381928 c -0.16744,0 -4.00492,-0.19776 -4.62851,7.368852 l -0.0149,0.01488 -0.19776,-0.228573 0.6395,-3.791251 -0.0298,-0.152054 c -0.0298,-0.167448 -0.9739,-4.049634 -3.66902,-4.019824 L 345.6718,35.228657 c -0.22857,-0.02985 -0.77664,-0.04575 -1.40123,0.380613 -1.33961,0.898376 -2.314,3.15176 -2.89288,6.729353 l -0.076,0.365217 53.49943,63.53211 -23.78106,0.10633 3.68442,-15.316574 -11.13029,-2.953502 -0.41092,-3.867279 -6.42476,-1.811654 -2.80146,-8.495797 -5.74005,-1.644699 -1.38532,-8.587217 -3.69984,-1.994505 -3.25808,-6.744764 -5.11547,-2.299099 -2.57288,-5.298319 -5.57261,-1.004707 -8.67814,52.237846 6.72934,7.56761 -34.54564,0.3195 0.74534,-3.07575 c 0.53266,-0.22856 1.33961,-0.71551 1.47675,-1.58358 0.16745,-1.03551 -0.71552,-1.85737 -1.35501,-2.32941 l 0.54806,-2.2837 c 0.21366,-0.19776 0.36522,-0.42633 0.44223,-0.70061 0.36522,-1.50706 -1.91798,-2.710026 -3.9433,-3.456351 l 7.60239,-0.167452 17.34139,0.182856 -13.49449,-16.960285 -39.78334,1.202468 c -0.63949,-1.416125 -2.6335,-5.405144 -6.05954,-8.084369 l 28.94373,-16.001781 -4.00493,-5.298313 -3.9433,-6.029239 -34.7285,19.305589 -0.19776,-0.152046 c 0.42632,-1.629798 1.35502,-6.196195 -1.05042,-8.099278 -1.87327,-1.476749 -5.02453,-0.882966 -9.60683,1.827056 -0.45714,0.258385 -4.39994,2.63351 -4.03473,5.648628 0.24844,2.100837 2.40494,3.730133 6.59271,4.978817 -0.98981,1.233274 -3.37984,4.887387 -1.6139,9.211311 l -2.25338,-1.401224 0.76123,-3.212383 -6.62352,-2.161462 -1.55277,-3.136357 1.19253,-6.044148 0.0914,-0.350307 h -0.0299 l 0.0457,-0.197761 -7.09556,-2.557977 -7.82599,-11.342961 -4.39994,-1.065825 -7.47568,34.530736 -15.51433,0.700615 12.88033,11.357867 -1.76595,6.242406 9.21131,10.4744 -30.52631,0.19776 -25.97433,-79.338118 0.15205,0.02985 -0.31949,-7.475683 -57.04872,-2.360216 -0.30459,6.485878 16.7019,83.783769 -9.75888,0.15205 -13.124307,-84.271218 0.669807,-6.51619 -58.631795,-1.492152 -0.9739,6.546996 3.288403,93.954574 17.219649,-0.94409 0.571924,4.87696 0.548061,4.9331 -1.765938,-0.0149 v 0.21367 l -17.083009,0.27428 0.669806,66.33604 -4.369632,12.07339 -4.598202,17.35629 9.850804,-1.72023 -0.776631,64.46329 c -0.06114,0.0457 -0.121746,0.0611 -0.197765,0.10633 l 0.106329,0.21366 c -1.126441,0.76123 -3.440945,3.03003 -1.735627,8.25182 0.09143,0.45714 0.609186,2.28369 3.2735,2.92319 0.898377,0.22857 2.024818,0.30459 3.456353,0.15205 l 36.084013,-4.17187 c 1.583581,0.89838 10.322845,5.32863 18.118027,-1.50707 l 35.55084,-4.64391 0.13715,-0.076 c 0.22857,-0.13714 5.20738,-3.34902 2.34531,-14.61596 l -9.59195,-59.80446 11.95165,-1.91799 14.37249,64.02154 c -0.42634,1.06583 -1.94879,5.29832 -0.0149,8.06946 1.20247,1.73564 3.47125,2.49687 6.74475,2.2688 l 30.00856,-3.50157 c 1.46186,0.7006 9.43939,4.14106 14.49423,-1.02012 l 36.52524,-5.21731 0.15206,-0.12175 c 0.15204,-0.10633 3.6238,-2.75574 3.36492,-7.74946 l -0.0298,-0.21367 c -0.0457,-0.10633 -0.89837,-2.54257 -4.29311,-4.27323 l -44.82481,-129.83539 32.74989,-0.85266 6.19619,7.15519 -2.90778,12.1042 18.77243,-0.9898 2.49686,-1.9329 c 2.54257,1.05042 13.18492,5.08515 16.88425,0.86806 l 0.12174,-0.15205 -0.24844,1.00472 5.45086,5.35943 -0.6241,2.66432 -2.2991,0.53266 -5.89208,24.5428 0.22856,0.30458 c 0.0914,0.10633 7.96262,10.09428 18.31529,3.51698 l 0.24844,-0.15205 1.32471,-4.12617 2.80145,2.2534 c 0.35031,0.3349 2.95351,2.80145 6.10527,2.75573 1.70531,-0.0149 3.22778,-0.73042 4.53658,-2.13661 l 0.15205,-0.15205 1.08123,-4.47597 18.23977,-1.09613 c 0.6698,0.0457 4.72043,0.13714 6.83618,-4.62851 1.35501,1.06582 4.11075,3.18207 6.85109,4.94801 a 8.7253538,8.7253538 0 0 0 1.9488,1.17215 c 0.0914,0.0611 0.18285,0.10634 0.27428,0.16746 l 0.10633,0.0611 0.13715,0.0148 c 0.0298,0 0.10633,0.0298 0.22857,0.0457 l 0.59378,0.18285 c 3.21238,0.76123 6.48587,-0.51776 8.79492,-3.06083 l 0.82235,-0.6857 38.0169,-0.9739 v 0.0611 c 0.21366,-0.0149 0.39601,-0.0457 0.59378,-0.076 l 3.37983,-0.0914 5.19248,5.32863 -3.36493,5.8618 -2.74034,12.30195 18.9861,-1.6447 2.10085,-8.75517 6.6076,-6.91171 -0.076,-0.0914 5.20739,-0.41093 -0.0611,-0.79154 0.91328,-3.82107 0.16746,-0.0148 -0.13715,-0.10633 0.076,-0.25839 -2.9386,-3.37983 2.2991,-7.5517 1.50707,-0.70061 3.65411,-10.74919 0.79154,-0.18285 2.00991,-4.00492 4.06455,-4.03473 2.6494,-11.00756 1.03552,-1.35501 10.61204,13.38268 -2.89288,9.89652 -5.40516,5.69435 -3.9587,11.99735 -4.04964,4.46106 -4.23249,17.58984 19.89937,-1.99451 2.5888,-10.77949 6.10526,-6.34874 2.49686,-9.22621 2.80145,-5.67943 50.52259,65.72685 -0.3195,3.34903 c -0.0149,0.0914 -0.28919,2.19227 1.27899,3.69983 0.59378,0.57838 1.35501,0.95899 2.2837,1.19253 1.29389,0.30459 2.89288,0.28919 4.81136,-0.076 l 12.91113,-2.99921 c 2.64942,0.89838 7.76488,1.41613 9.95765,-2.45115 l 14.67708,-3.01462 c 0.51775,-0.0298 3.59249,-0.18286 6.66823,-1.21737 l 13.15462,-2.6037 c 1.03551,0.22857 6.2424,1.21737 8.51069,-1.61389 l 16.36749,-3.51697 0.16746,-0.16746 c 0.076,-0.0914 1.90308,-1.99451 0.89837,-4.50677 m -18.23977,6.76016 -0.10633,0.0298 -0.18286,0.24844 c -1.17265,1.70532 -4.23248,1.65961 -6.13557,1.38532 -0.73042,-0.39602 -1.21737,-0.9898 -1.32471,-1.68942 -0.10633,-0.71552 0.18286,-1.46184 0.82235,-2.08594 0.66982,-0.68571 1.64471,-1.14185 2.72544,-1.3093 0.71552,-0.12173 1.44594,-0.0914 2.08594,0.0611 1.29389,0.3195 2.19227,1.11154 2.3453,2.08594 0.0611,0.42633 -0.0149,0.86806 -0.22857,1.27899 m -26.44586,0.21366 c -0.42634,-0.6698 -0.86807,-1.21738 -1.2939,-1.61389 l 1.50706,-0.3349 0.0149,0.0457 38.97589,-8.14548 c 1.08122,0.3503 1.87327,0.77663 2.43624,1.19252 z m -19.83826,5.21733 c 1.279,0.3195 2.17736,1.11154 2.34531,2.08593 0.10633,0.71553 -0.18285,1.46185 -0.83726,2.10085 -0.6698,0.66979 -1.62978,1.12644 -2.72542,1.29389 -0.71552,0.12174 -1.43104,0.0914 -2.08593,-0.0611 -1.29391,-0.30459 -2.19229,-1.11154 -2.34532,-2.08593 -0.10633,-0.70062 0.18285,-1.46185 0.82235,-2.08594 0.6698,-0.68571 1.64469,-1.14185 2.74033,-1.3093 a 7.4533209,7.4533209 0 0 1 0.57838,-0.0611 l 0.0149,0.076 0.44223,-0.076 a 4.7254052,4.7254052 0 0 1 1.05042,0.12173 m -1.14185,-0.95899 c -0.36522,0 -0.71553,0.0148 -1.08123,0.076 -0.48695,0.076 -0.959,0.21365 -1.40122,0.39601 v -0.0298 l -16.21496,3.41064 c -0.22857,-0.62409 -0.54806,-1.14185 -0.9898,-1.53786 -0.076,-0.076 -0.16744,-0.13715 -0.24844,-0.19777 l 34.48502,-6.94252 0.0457,0.0457 3.12045,-0.66981 c 0.3349,0.21367 0.9739,0.70061 1.59849,1.50706 z m -117.86036,-82.95147 2.00992,-9.07417 12.92604,1.67452 -2.08593,8.73925 z m -1.65961,0.21365 -6.62351,8.28313 -0.0457,0.18286 -0.13714,-0.0149 -0.0298,0.53267 -3.04493,9.50049 -1.15775,2.10085 -9.71416,0.19775 c 0.82234,-6.07495 -1.84247,-10.45949 -2.66431,-11.64705 l 2.2991,-9.59193 h -0.0298 c 0.0298,-0.076 0.0611,-0.12174 0.076,-0.18285 0.70061,-2.89289 -4.81137,-5.81607 -10.61204,-7.2014 -1.35501,-0.3349 -2.74034,-0.57837 -4.06454,-0.71552 l 1.62979,-6.79047 40.34732,-0.73043 -3.89759,5.5418 z m 4.14107,20.05143 -12.65226,-0.80694 0.0457,-0.0611 2.90779,-9.05827 12.774,0.89837 z m -3.57759,12.66717 -18.92498,1.26358 -3.21237,-3.10555 18.63578,-1.38532 z m -22.88319,-2.58879 -1.17265,-1.12645 c 0.83726,-1.0201 1.46184,-1.9791 1.9329,-2.86207 l 14.34217,-0.60918 3.48666,3.22778 z m -9.75888,1.38533 -36.75331,0.94408 c 6.8819,-11.87562 1.0201,-20.94979 -1.75105,-24.2382 l 22.80717,-0.39601 -0.36521,1.50706 0.38062,0.3195 c 0.3195,0.24844 4.97881,4.01982 11.02296,5.48066 3.69982,0.88298 7.90201,0.89838 11.93674,-1.3247 l 0.30459,-0.15204 0.54807,-2.32941 c 0.9898,1.88817 2.2991,5.35943 1.58358,9.68335 v 0.13714 c 0,0.38062 -0.076,9.1656 -9.71416,10.36857 m -42.32592,3.66902 c -0.10633,0.0914 -0.22856,0.16745 -0.35031,0.24844 -0.0914,0.0457 -0.18285,0.10633 -0.27427,0.13714 -1.68943,0.86807 -4.20219,0.68571 -5.25211,0.56347 -0.28919,-0.10634 -0.56347,-0.21366 -0.83726,-0.3349 a 32.004559,32.004559 0 0 1 -1.12644,-0.6852 c -2.58878,-1.93291 -3.86728,-5.71423 -2.9386,-9.56162 1.19253,-4.91771 5.49558,-8.09929 9.62224,-7.11047 4.11075,0.9898 6.50128,5.78576 5.32863,10.70297 -0.44224,1.79674 -1.29391,3.37983 -2.42084,4.59819 z M 308.7788,154.74775 c -2.20767,-2.67972 -5.48067,-3.97362 -9.75888,-3.83698 l -5.20738,0.19776 c 0.36521,-2.07053 1.58358,-7.14027 5.28291,-10.01825 2.3294,-1.82706 5.32863,-2.46655 8.861,-1.9329 l -1.70532,7.82599 -0.0149,0.15205 c -0.076,4.04964 7.33904,7.11046 8.19121,7.44487 l 0.0611,0.0149 0.0611,0.0298 c 0.50185,0.0914 11.20582,2.23799 14.29646,-3.34902 2.05563,2.28369 7.27742,9.37876 3.71473,19.07702 0.54807,-5.17659 -2.26879,-9.95764 -6.79046,-11.03837 -4.97882,-1.20247 -10.15541,2.52718 -11.55613,8.29803 -0.60919,2.54257 -0.38062,5.06975 0.48695,7.18649 -1.47675,-1.06582 -2.72544,-2.04022 -3.39523,-2.57288 0.41092,-2.11675 2.07053,-11.89053 -2.52718,-17.47854 m -21.30018,-3.41064 c 0.12174,-1.38532 0.73042,-3.56268 0.9898,-4.41534 l 0.18285,-0.59378 -0.22856,-0.13714 c 0.65489,-1.90309 2.58879,-6.48589 6.98823,-8.92213 3.54778,-1.9791 7.94772,-2.11674 13.06816,-0.45713 l -0.19776,0.83725 c -4.00493,-0.62409 -7.41457,0.12174 -10.14,2.23798 -4.35423,3.37983 -5.5875,9.22622 -5.8921,11.28184 z m -17.38711,27.19221 -0.0298,-0.0298 -0.0299,0.0611 c -0.3349,0.21366 -0.66981,0.38061 -1.0047,0.47204 l -1.05043,0.076 v 0.0457 c -0.15204,-0.0149 -0.28918,-0.0298 -0.42632,-0.0611 -3.10555,-0.74534 -5.28292,-6.47048 -4.94802,-13.00207 0.18286,-3.48667 1.05043,-6.72936 2.42085,-9.10449 1.27898,-2.22307 2.83225,-3.41063 4.36962,-3.32915 0.16746,0.0149 0.33491,0.0457 0.51776,0.076 3.10555,0.74533 5.28292,6.45557 4.93311,13.00207 -0.18286,3.48667 -1.05042,6.72935 -2.42084,9.10448 -0.70061,1.23328 -1.50706,2.13661 -2.32941,2.69462 m -9.86571,-20.67054 0.0914,-0.41093 c 0.50186,0.28919 1.14185,0.59379 1.918,0.77664 a 2.3552493,2.3552493 0 0 0 0.47204,0.0914 c -0.15205,0.36521 -0.28919,0.74533 -0.42634,1.12644 -1.38532,-0.39601 -2.45115,-0.89837 -3.16666,-1.3396 z m 1.62979,3.10555 c -0.41093,1.58358 -0.66981,3.2884 -0.76123,5.05485 -0.13715,2.75574 0.13713,5.37433 0.74533,7.60238 -4.79596,-1.35502 -6.25732,-3.39523 -6.59271,-4.00492 l 2.52717,-10.50521 c 0.82236,0.57838 2.16147,1.32471 4.08044,1.85738 m -7.07965,10.59662 c 1.14184,1.20247 3.36491,2.80146 7.65803,3.85188 0.70061,1.73563 1.59849,3.13636 2.69463,4.06455 -5.86179,-0.12174 -10.03316,-3.62381 -11.1303,-4.67423 z m 13.62665,-19.50285 0.0149,0.18285 c -1.75104,0.3349 -3.39524,1.70532 -4.72044,3.98902 a 12.367543,12.367543 0 0 0 -0.39602,0.77664 c -1.19253,-0.10634 -2.11675,-0.60919 -2.63351,-0.959 l 0.53267,-2.23798 0.10633,-0.42632 3.09064,-12.91114 c 1.37042,1.62978 4.14108,3.13635 7.67345,3.97361 3.44095,0.83726 6.53159,0.79154 8.49579,0.0149 l -1.73563,7.2168 z m -88.97775,-22.76146 -2.26878,-7.18649 135.09293,-2.46655 c -0.0611,0.13714 -0.10634,0.27428 -0.13715,0.39602 v 0.0149 l -1.21737,5.5726 z m 3.66456,136.67652 -3.68443,0.45713 -27.83168,-104.12488 2.04021,-6.92761 30.17601,110.48902 z m -4.79596,2.42083 1.59849,-0.27428 44.44166,-5.49559 c 1.43105,0.77665 2.2991,1.65961 2.77114,2.31401 l -43.6049,5.52689 0.0149,0.076 a 8.3228747,8.3228747 0 0 0 -1.84246,0.10633 7.8210177,7.8210177 0 0 0 -1.79676,0.48745 l -35.29196,4.06455 c -0.12174,-0.74534 -0.36521,-1.76594 -0.85266,-2.6037 l 34.54564,-4.27324 z m 8.26721,9.22623 c -0.85265,0.86805 -2.08593,1.47674 -3.48666,1.7053 a 6.7079886,6.7079886 0 0 1 -2.6494,-0.0914 c -1.61389,-0.38062 -2.75574,-1.37041 -2.9535,-2.57289 -0.13715,-0.88296 0.21366,-1.81166 1.00471,-2.6186 0.50185,-0.50185 1.15774,-0.91328 1.88817,-1.21738 l 0.22857,-0.0298 v -0.0611 c 0.42632,-0.16744 0.88297,-0.30459 1.35501,-0.3806 0.91328,-0.15205 1.82706,-0.12175 2.64941,0.076 1.62979,0.39602 2.75573,1.38532 2.9535,2.58879 0.15205,0.88297 -0.19777,1.81165 -0.98981,2.60369 m -35.70282,-118.467 -2.39003,-10.56632 3.76044,0.45714 0.74533,2.92319 z m -2.77114,-12.19512 -2.58879,-11.52532 3.44094,0.82236 2.86208,11.14519 z m -2.29911,-13.07809 1.67451,-3.3043 1.02012,3.9587 z m -0.9898,-1.50707 -2.05563,-9.01355 2.84717,-0.0914 1.27899,4.99373 z m -26.34004,51.84183 2.16147,11.03837 -10.36856,1.00471 1.55277,-4.36965 z m -8.03865,6.86699 -1.56818,4.41535 -12.46344,-70.51041 10.62694,-0.25837 11.08409,57.48993 z m -38.412922,89.28084 5.724149,-0.71552 42.584793,-5.03944 c 0.10634,0.89838 0.15205,1.72023 0.13714,2.46655 l -42.90429,5.34404 c -1.050423,-0.24845 -2.192272,-0.27429 -3.304306,-0.10634 -1.111539,0.18286 -2.146555,0.56347 -3.044931,1.11154 l -42.188778,5.23721 c 0.137144,-0.88298 0.22857,-2.14657 -0.06114,-3.21239 l 43.056844,-5.11546 z m 7.125373,8.93703 c -0.852659,0.86806 -2.085934,1.47675 -3.471256,1.68942 -0.913279,0.15205 -1.842461,0.13714 -2.664323,-0.076 -1.629785,-0.38062 -2.755732,-1.37041 -2.953496,-2.58878 -0.137144,-0.86807 0.213658,-1.79675 0.989802,-2.58879 0.852659,-0.88297 2.085934,-1.47675 3.486663,-1.70532 0.91328,-0.15205 1.827054,-0.12174 2.664315,0.076 1.613892,0.39602 2.755741,1.38533 2.938594,2.58879 0.15205,0.88297 -0.197756,1.81166 -0.989804,2.6037 M 73.418729,278.59264 62.411165,159.8513 l 1.598493,-2.16147 12.286548,120.55249 z m -11.220727,-121.10156 -1.613891,-17.3414 1.401215,-2.25339 1.781346,17.46314 z m -2.907796,-31.19613 1.507067,-0.16744 0.929182,9.2113 -1.385322,2.22308 z m 3.075746,-0.27428 32.399078,-1.08123 0.65491,3.65412 -32.642566,1.49216 z m -0.167454,-1.64469 -0.868057,0.10633 -4.811374,0.15204 1.157752,-4.84167 8.419268,-0.24845 -1.157751,4.81137 -2.740334,0.0914 z m -5.587509,-15.89546 -6.203152,-84.272702 1.932897,0.01488 8.069458,84.195192 z M 48.7946,23.827039 54.915258,106.72784 25.028445,107.24559 22.07394,23.081704 Z m 6.226996,84.468981 0.01486,0.19776 -7.368845,0.12174 -0.0299,-0.19777 z m 0.137144,1.76594 v 0.0611 l 7.003636,-0.0611 -0.01486,-0.10633 29.034164,-0.45714 0.0298,0.12173 13.00207,-0.27428 -0.0149,-0.0611 29.84111,-0.47204 v 0.0149 l 5.42005,-0.0914 28.50149,-0.45714 1.97911,6.63843 -120.826776,3.54778 -1.217373,-8.28313 z m 32.20132,-85.336545 27.1768,1.02011 18.59007,79.170665 -29.67415,0.63949 z m 28.48659,1.065825 1.35502,0.06114 22.63971,81.30281 h -0.39602 l -4.15647,0.076 z m 25.48688,80.67822 26.00463,-0.16746 0.13715,0.41093 -25.95892,0.41093 z m 19.03081,14.7377 1.06582,-4.44566 8.63244,-0.25838 -1.49215,4.43075 z m -21.75674,0.71551 1.09614,-4.53658 10.32285,-0.3046 -1.08122,4.50678 z m -52.4505,1.73564 1.12644,-4.73534 50.7909,-1.49216 -1.09613,4.55248 z m -0.48695,-4.68913 -1.14185,4.73533 -17.950574,0.59379 1.157743,-4.79596 z m 65.98573,-1.9329 8.14549,-0.22857 -1.08123,4.46106 -8.14548,0.25838 z m -102.725136,2.69413 0.01486,0.31949 7.125373,-0.21366 -1.172655,4.85659 -9.165598,0.28919 h -1.353526 z m 59.636496,4.76515 32.58195,-1.08123 0.80695,3.54778 -32.67338,1.20247 z m 39.53987,2.23798 -0.89837,-3.51697 28.34945,-0.92917 1.00471,3.19747 z m 268.87605,-21.65036 -49.57203,-57.443732 49.80109,57.443732 z m -31.27164,-58.037508 55.23705,58.479748 -2.40494,-0.0457 -53.01448,-58.555769 z m 1.91798,-0.258384 17.14363,1.385326 53.60825,57.094416 -15.27085,0.25839 z m 19.88397,1.917985 27.58722,29.475398 -27.64883,-29.465456 z m 34.30217,58.419137 2.86208,0.0611 -0.10634,-0.10634 22.41164,-0.38061 8.32784,8.17579 -45.32513,0.91328 -7.56761,-8.34274 z m 61.57039,14.22093 -0.50186,2.80146 -2.04022,-2.05564 -21.98531,0.70062 0.3195,0.28919 -2.99921,0.10633 0.27427,-1.11153 z m 38.24547,96.07082 -77.06882,-89.69227 17.75232,-0.71552 75.59306,87.01156 z m -3.53288,0.73042 -2.45114,0.48696 -75.47084,-89.95016 3.06083,-0.0914 76.59779,89.17352 z m -101.97632,-93.84874 -6.59272,0.18286 1.53788,-7.14028 29.26272,-0.59378 -1.70532,7.09556 -1.02011,0.0298 0.10633,0.12174 -21.45215,0.44224 z m -19.73144,-6.42476 12.91115,-0.48694 0.12173,0.13713 -1.50806,6.99817 -13.21522,0.35032 z m 143.05557,95.52275 -74.77122,-86.08337 0.76124,-0.0457 74.95357,85.93083 z m -75.3809,-87.77328 -1.53787,-1.44595 17.7066,-0.56347 1.38533,1.38533 z m -3.5776,-0.0457 -18.16374,0.74533 -1.12645,-1.08123 18.3004,-0.66981 z m -5.93781,-2.32942 -14.28056,0.53267 1.67451,-6.95792 -0.36521,-0.0914 14.61596,-0.3046 z m -35.32227,3.95871 -1.14185,-1.23328 19.6559,-0.41092 1.47674,1.17265 z m 123.15618,85.88512 -75.10562,-86.08337 16.54985,-0.57838 75.3645,83.14428 z m -142.06526,-105.61701 7.61233,8.38896 -13.06817,0.48695 -8.00834,-8.64784 z m -5.5572,10.45949 -1.62979,6.76017 -58.81466,1.05042 -0.85265,-0.15205 -0.0457,0.16745 -16.45842,0.28919 v 0.076 l -2.55798,0.0457 c 0.10634,-0.22857 0.21366,-0.45714 0.27428,-0.6857 0.53266,-2.25338 -1.6447,-4.72044 -5.40515,-6.48588 z m -57.9928,24.19348 0.22858,-0.77663 h -0.0457 l 0.60918,-2.49687 c 1.78135,1.90308 5.63322,3.5776 9.60684,4.53659 4.00491,0.959 8.20609,1.21738 10.64234,0.3349 l -2.70999,11.32756 c -8.58722,4.43075 -18.45294,-2.34532 -20.50806,-3.88218 z m 10.77949,-0.25838 c -6.18128,-1.49215 -9.72907,-4.12615 -9.43938,-5.29831 0.27429,-1.17266 4.62851,-1.918 10.8098,-0.44224 6.19619,1.49216 9.72907,4.14107 9.45479,5.29832 -0.28919,1.17265 -4.64391,1.91799 -10.82521,0.44223 m -10.97724,-5.66353 -1.14185,4.78006 -3.10555,-0.76123 v -0.0298 l 0.0457,0.0149 2.37512,-12.89573 10.4744,-0.19777 -1.59849,6.65831 c -3.6238,-0.18286 -6.59271,0.48694 -7.04935,2.43624 m -73.97868,6.49482 a 1.1577491,1.1577491 0 0 0 0.12174,-0.3195 c 0.59378,-2.48146 -3.07574,-5.35943 -8.54647,-6.66824 -3.19748,-0.76123 -6.07495,-0.77663 -8.05456,-0.15205 l 0.59378,-2.46655 36.19034,-1.05042 c 0.50186,0.38062 1.87327,1.37042 3.94331,2.71003 -4.65882,-1.12645 -8.75517,-0.74533 -12.18022,1.15774 -4.64391,2.57289 -6.79047,7.2014 -7.60238,9.4707 z m 25.62452,-8.93703 c -1.52246,-0.9739 -2.69462,-1.78134 -3.48666,-2.34531 l 4.50677,-1.94879 z m 6.72936,19.3205 c -1.91799,-0.77663 -7.07967,-3.39524 -7.14029,-5.86179 l 5.21732,-23.97982 c 1.56819,2.00992 4.85659,3.86728 9.07418,4.87199 4.75025,1.14185 8.92212,0.82235 11.08407,-0.6549 l -5.2521,21.87799 c -1.38532,5.81606 -12.05847,3.9279 -12.98716,3.74554 m 30.26744,-25.5326 -1.05043,5.42006 7.44488,2.19227 -1.09614,6.2424 4.50677,1.08123 -1.82705,6.21209 -23.5838,0.39603 5.13088,-21.36122 z m 1.61389,-0.10633 6.30302,-0.12173 -1.14185,6.31842 -5.99893,-1.78135 z m -13.68728,-2.34531 c -0.42632,1.81165 -4.9177,2.86207 -10.65825,1.49216 -5.75496,-1.38533 -9.25702,-4.36964 -8.83069,-6.16142 v -0.0149 c 0.42633,-1.79676 4.9177,-2.86208 10.65825,-1.47676 5.75495,1.38533 9.27193,4.35423 8.83069,6.16141 m -76.04971,3.79126 c -0.57837,0.0914 -1.05042,0.24845 -1.21737,0.30459 l -0.39602,0.15205 -1.91798,8.00835 c -4.26331,2.43624 -11.55614,-1.11154 -13.04829,-1.88818 l 1.52246,-6.33383 15.13372,-0.42633 z m -17.23506,0.28919 h 0.57838 l -3.89759,16.22985 -0.71552,0.54807 z m 0.28919,7.84089 c 1.08123,0.53266 3.34903,1.58358 5.93781,2.20768 2.29911,0.56347 4.84168,0.76123 7.01905,0 l -0.6549,2.72543 0.68571,0.56347 c -5.63323,1.53787 -12.31786,-1.72023 -13.733,-2.45115 z m 19.74634,-8.38896 50.60804,-1.41613 -7.52139,3.2581 -36.72301,1.05041 z m 13.96156,8.41927 c 4.6285,1.11154 7.73455,3.48667 7.5363,4.9177 l -0.19776,-0.10632 -0.18286,0.77663 c -1.14184,1.03551 -4.5828,1.43104 -8.61753,0.47204 -4.29311,-1.03551 -7.26251,-3.15176 -7.52139,-4.5982 l 0.12174,-0.51775 -0.076,-0.0149 c 0.54806,-1.35501 4.35423,-2.04023 8.93702,-0.92918 m 6.60763,14.55534 1.76593,-7.29283 4.56739,2.72543 c -0.28918,0.98981 -0.79153,2.89289 -0.89837,4.30802 l -2.25338,0.13714 z m 99.35917,16.16873 c 0.60919,-1.27898 0.88298,-2.32941 0.9739,-2.98431 l 9.28684,-0.19776 2.86208,2.63351 z m 38.38263,-34.45421 -12.81972,-1.65961 3.74554,-5.34404 3.89759,-0.0611 3.44095,3.62381 0.6549,-0.0149 2.13662,2.08593 z m -2.36023,-6.91171 19.6559,-0.51776 1.73563,1.68942 -19.48795,0.6857 z m 25.25832,3.34902 75.74561,92.55385 -1.52247,0.33489 -74.98388,-92.84353 z m 1.15775,-1.06582 15.59035,-0.36522 76.03381,90.65076 -15.22465,3.06084 z m 60.42854,-8.90672 -25.85209,0.70061 0.24844,-1.03552 14.4644,-0.41092 h 10.53602 z m -12.81972,-2.2688 -12.39338,0.35031 0.71551,-3.06083 -0.6857,0.0149 -1.37041,-1.33961 9.89652,-0.50186 z m -4.11075,-8.05455 c 0.28918,0.83725 0.19776,1.53786 0.076,1.94879 l -11.22073,0.56348 -5.42004,-5.31373 13.64156,-0.22857 c 1.52246,0.89838 2.52717,1.9329 2.92319,3.03003 m -5.51148,-4.5674 -17.6917,0.30459 -53.02441,-56.651691 15.89544,1.278989 z m -91.27039,-64.933184 30.25254,2.953498 c 3.6084,0.501859 5.02453,3.638711 5.52689,5.282916 L 386.1378,45.097069 c 0.62409,-5.100559 2.83226,-5.130863 2.83226,-5.130863 m 47.59393,65.666234 -16.56477,0.27429 -52.83161,-60.931897 15.4234,1.050423 z m -91.16852,-68.848306 35.76401,2.360216 c 1.27898,-0.01488 1.97911,2.085934 2.14655,2.649406 l -0.45713,2.679719 -39.78335,-2.725433 c 0.9441,-4.841673 2.37514,-4.948012 2.32942,-4.963908 m -1.46185,6.592209 18.81815,1.293897 52.92254,61.31102 -18.78732,0.30459 z m 52.81622,64.432967 -0.0148,0.0611 8.00835,-0.13714 8.00834,8.64784 -87.8036,1.11154 c -0.0914,-0.0298 -0.18285,-0.0611 -0.27428,-0.076 -4.73533,-1.14185 -8.90672,-0.82235 -11.08408,0.65489 l -138.56419,2.51227 0.0457,0.13715 -4.82626,0.16744 1.49214,-4.41534 -0.076,-0.0149 0.36521,-0.0149 -2.43624,-8.1912 0.82235,-0.0149 v -0.0457 l 28.34945,-0.18285 v 0.0298 h 45.24911 l -0.0149,0.0458 12.63686,0.0149 -0.0457,-0.076 118.2693,-0.0149 v -0.10631 z m -189.4107,-1.33981 h -4.87198 l 12.10419,-49.253524 5.17658,1.873265 z m 28.71516,-26.430958 2.23798,-0.09143 v 0.01488 l 6.13558,8.221506 v 0.02981 l 2.69462,3.258095 -9.34845,0.532664 -0.28919,-4.32392 -3.36492,-0.563471 1.11154,-3.562687 -4.89137,-2.261833 0.24845,-1.035513 5.19247,-0.19776 0.62409,0.380611 z m 22.53387,-1.278997 0.0457,0.137145 0.19777,-0.01489 5.45086,6.242406 c -2.11675,-0.700611 -4.99372,-1.172655 -7.88661,-0.213661 -2.9535,1.004707 -5.28292,3.32915 -6.95792,6.927613 l -3.44095,-4.156468 c 0.0914,-1.096136 0.65489,-5.19248 3.66902,-7.536304 2.17736,-1.67451 5.16117,-2.146552 8.92212,-1.38532 m 20.40222,12.880331 -6.69904,0.152047 -4.50677,-5.024532 -0.076,-0.07602 -6.8819,-7.870705 20.76694,-0.624095 9.28684,13.184926 -9.15019,0.197762 c -0.9441,-0.07603 -1.918,-0.09143 -2.74034,0.06112 m 3.53286,11.72357 c 1.90308,0.45714 4.17188,0.70062 6.62353,0.39603 l -0.62409,2.55797 -12.33276,-0.33489 1.12644,-4.64392 c 1.03552,0.57838 2.86207,1.46184 5.20739,2.02481 m -7.12538,-0.79154 c -1.08122,0.0298 -4.08044,0.47204 -6.82078,3.88219 h -13.093 l -3.89758,-5.54179 c -0.0298,-0.0298 -1.67453,-2.9535 -1.49217,-6.86699 l 0.10634,0.0457 c 1.52247,-4.110752 3.77635,-6.683142 6.69904,-7.67344 4.43075,-1.507062 9.11989,1.081229 9.80509,1.492155 l 4.62852,5.161176 0.0148,0.304592 h 0.25839 l 3.74554,4.171877 c -0.21365,0.25838 -0.39601,0.57837 -0.44223,0.95899 -0.076,0.68571 0.25839,1.3247 1.00471,1.9329 z M 236.025,88.99199 l 0.21366,3.090643 -3.39523,0.197762 0.88296,-3.669021 z m -4.39994,4.902297 16.01668,-0.91328 -3.24319,13.474113 h -15.78864 z m 14.38788,12.561333 2.54258,-10.53602 c 0.27428,3.36493 1.59849,5.66354 1.68942,5.84639 l 3.31921,4.68913 z m 27.67916,-13.124307 3.41063,-0.07603 -0.73043,3.060837 z m -42.73736,-14.631363 0.35032,-1.431042 2.14655,1.324703 z m -1.0047,4.110753 3.41064,1.568179 -0.83725,2.679716 -0.0457,-0.01491 -0.16746,0.715518 -0.18285,0.593783 h 0.0457 l -0.9739,4.019824 -0.80695,0.04572 -3.36492,14.037087 -3.76045,0.0149 z m 142.87271,9.348451 -3.44095,14.280566 h -9.72907 l 3.56268,-16.823639 z m -10.7944,-3.912993 -0.12174,-0.02981 -3.86728,18.224369 h -6.47048 l 4.9023,-22.487668 5.2372,1.492155 z m -6.79048,-5.405148 -0.12172,-0.02981 -5.16119,23.629517 h -9.17205 l 7.5517,-32.506423 4.36964,1.248677 z m -8.42671,-9.349942 0.0149,0.01488 -7.65805,32.931749 h -2.98431 l 9.22622,-41.564687 z m -4.88739,-10.673159 2.08593,1.126449 -9.42447,42.493869 h -6.2121 l 10.62694,-49.663965 z m -22.35003,35.276568 8.31294,-49.923335 3.22778,0.563471 2.46655,5.085155 4.04964,1.827058 -10.80979,50.547421 z m -48.90372,8.35865 c 1.75103,-1.72023 3.44095,-2.16145 4.33932,-2.26878 l -0.54807,2.26878 z m 20.09713,-4.90229 c -0.0149,0.10633 -0.38062,0.3503 -0.77664,0.47204 -6.60761,1.2939 -12.1499,-2.16146 -12.69797,-2.52717 l -0.0611,-0.0457 c -0.74532,-0.48695 -0.76123,-0.74533 -0.76123,-0.74533 0,-0.12174 0.35031,-0.39602 0.70062,-0.53267 l 0.39601,-0.13714 0.73043,-3.07573 c 1.81165,1.3247 5.13086,2.16146 5.64863,2.28369 0.50185,0.12174 3.6084,0.83726 5.80066,0.56347 l -0.56347,2.34531 0.45714,0.3046 c 1.11154,0.71552 1.12644,1.08123 1.12644,1.09613 m -5.95272,-7.870705 c 3.15177,0.761235 5.10056,1.873265 5.52689,2.404935 l -0.16745,-0.0457 -0.0298,0.10633 c -0.80695,0.24844 -2.92319,0.27428 -5.81608,-0.42633 -3.15176,-0.76123 -5.11545,-1.873269 -5.54179,-2.420839 0.076,-0.02981 0.18285,-0.06112 0.30459,-0.09143 l 2.61861,-0.04572 c 0.89837,0.07602 1.93288,0.248444 3.10555,0.517757 m 24.84738,-2.253387 -12.60606,-0.121737 v -0.06112 l -1.47674,0.02981 h -0.66981 v 0.02981 l -2.14656,0.04572 -9.28683,-13.215234 15.25546,-0.45714 z M 257.82052,77.05375 c -3.73014,-0.548068 -6.79047,0.09143 -9.10447,1.888176 -2.6037,2.040227 -3.63872,5.05484 -4.01983,7.019039 L 239.88485,79.5213 c 0.15205,-1.065825 0.91328,-4.963915 3.98902,-7.414566 2.08593,-1.67451 4.84168,-2.360216 8.1912,-2.085935 2.90779,2.024818 4.84168,5.237202 5.75496,7.033946 m 19.45813,-28.243112 2.9386,3.882186 -27.78598,15.377194 c -1.02011,-1.568178 -3.83697,-5.313722 -8.43468,-6.42476 -0.0298,-0.01489 -0.0611,-0.01489 -0.10633,-0.02985 -0.41093,-0.09143 -0.80694,-0.152046 -1.21737,-0.197761 l 31.42468,-17.463125 z m -45.14228,15.088004 c -3.48666,-1.020111 -5.42005,-2.299099 -5.5875,-3.684426 -0.19776,-1.689419 2.28369,-3.532874 3.27349,-4.110753 3.80617,-2.237988 6.59272,-2.923193 7.82599,-1.948798 1.6596,1.3093 0.83725,5.450866 0.38062,6.927615 l -0.15205,0.532666 0.22856,0.182852 c -1.72022,0.472041 -3.48665,1.324703 -5.2829,2.542573 -0.24844,-0.258376 -0.50187,-0.396014 -0.68571,-0.426326 z m 0.959,2.136617 c 2.28369,-1.644699 4.49187,-2.664316 6.62352,-3.014616 l 0.0298,0.02978 0.0611,-0.02978 c 1.27898,-0.213664 2.52717,-0.167456 3.71473,0.106331 0.0457,0 0.076,0.01489 0.10633,0.01489 3.6238,0.868065 6.05955,3.714731 7.15519,5.282909 -3.12045,-0.01489 -5.77036,0.791544 -7.8707,2.466555 -2.9386,2.345315 -4.00492,5.714211 -4.39994,7.505988 l -3.74555,0.152054 -1.73563,-2.009916 c -4.72044,-5.480676 -0.13714,-10.292038 0.0611,-10.505209 m -3.16667,10.383475 -1.23328,5.100551 h -0.0149 l -7.04935,24.953714 h -2.71003 l 8.31293,-31.729276 z m -9.181,-7.323137 5.84638,1.917985 -9.30273,35.459417 h -8.34275 l 10.4903,-39.996511 z m -37.48424,10.65825 11.28184,-0.50186 -1.93289,8.739263 z m 8.89081,15.799042 1.81166,-6.380039 -0.12174,-0.09143 0.0914,0.01491 3.18206,-14.342173 -0.076,-0.01488 6.43968,-29.718874 2.23798,0.548069 7.42997,10.764087 -12.10419,49.32955 z m -25.33482,9.181 -25.92861,0.16745 -22.3053,-79.003206 22.70082,0.852661 z m -25.38105,-83.387746 0.15206,3.836973 -0.56348,-0.01488 -0.28919,-0.07603 0.0149,0.06114 -53.54665,-2.009908 0.19776,-4.019825 z m -37.66709,85.777776 29.71888,-0.63948 0.18285,0.76122 -29.78049,0.47205 z m -41.778352,1.26359 -0.04575,-0.48696 28.912422,-0.50185 0.076,0.53266 z M 90.61566,105.8146 61.794663,106.33236 53.899611,23.964232 78.016072,24.634027 Z M 78.331592,18.635601 77.889365,23.050947 22.165357,21.51308 22.804844,17.21997 Z m -53.243041,90.178209 21.756735,-0.38061 -0.22857,0.19776 h -0.472042 l 0.01486,0.41093 -5.313717,4.56739 -15.560058,0.85266 z m 17.3712,5.48068 3.958715,-3.41064 1.157743,8.00835 -4.034734,4.67423 -0.410927,-3.68443 z m 1.416137,12.40829 -0.01486,-0.15205 1.903082,0.0149 11.951649,-0.39601 0.365209,4.01982 -33.190633,1.40123 -0.04574,-4.58279 z m -19.563482,76.85715 -3.167657,0.56298 2.968903,-8.22151 z m -3.638709,2.23798 3.66902,-0.63949 0.3195,12.7586 -7.551706,1.3247 z m 5.724157,11.81451 -0.167463,0.0298 -0.669797,-26.53729 h -0.06114 l -0.593779,-57.93218 33.327777,-1.41613 13.626656,147.01427 -43.635215,5.17658 0.01486,0.076 c -0.09143,-0.0914 -0.182852,-0.16744 -0.289181,-0.25837 -0.609186,-0.47206 -1.385331,-0.59378 -2.329416,-0.39603 z m -2.633518,74.64899 -0.02981,-0.15206 c -1.751035,-5.31371 1.248674,-6.62352 1.370419,-6.68313 l 0.486945,-0.18285 0.01486,-0.0611 c 0.593779,-0.21365 1.050423,-0.22856 1.293896,-0.0298 0.700612,0.53267 0.563469,2.75573 0.248444,4.11075 l -1.568183,4.59821 c -1.613892,-0.50187 -1.796744,-1.55277 -1.811656,-1.5985 m 41.853878,-2.2991 -0.248443,-0.15205 -36.600773,4.24841 c -0.548061,0.0457 -1.020113,0.0611 -1.461845,0.0611 l 1.309303,-3.80617 40.574886,-5.05485 c -0.745339,1.03552 -1.03552,2.20767 -0.852668,3.34903 0.213667,1.37042 1.126442,2.54258 2.481463,3.30431 -2.968904,-0.54807 -5.024536,-1.84246 -5.207388,-1.9488 m 52.511126,-6.18129 -35.68799,4.65883 -0.16744,0.16745 c -0.36522,0.31951 -0.73043,0.60919 -1.09614,0.88297 0.59379,-0.95899 0.83726,-2.00991 0.6549,-3.06083 -0.16745,-1.08123 -0.76124,-2.00991 -1.65961,-2.74034 l 40.19426,-5.00862 c -0.39601,3.34901 -1.84245,4.76515 -2.23798,5.10054 m 1.96421,-10.73377 -42.219099,5.00863 -14.920552,-146.40508 32.749891,-1.49215 11.7539,66.50349 -0.21367,0.0298 2.80145,15.24055 0.12174,-0.0298 9.47069,59.01291 c 0.19776,0.74534 0.3349,1.46184 0.45714,2.13661 m -8.93852,-63.78502 -1.88818,-10.21601 0.41093,-1.15775 11.25153,-1.08124 2.07053,10.55093 z m 13.59585,-2.17736 -0.19776,0.0298 -4.73535,-24.11646 -0.36521,0.076 0.3349,-0.39602 -10.21602,-52.96827 32.734,-1.19253 1.38531,6.05955 -0.19775,0.38062 0.28919,0.0611 6.1614,27.22251 -0.0149,0.0611 0.19777,0.74533 0.77663,3.44096 0.13713,-0.0299 26.78127,100.16616 -35.70289,4.41535 v 0.0457 c -0.86805,-0.3349 -1.84245,-0.18285 -2.90778,0.44223 z m 14.43352,72.9591 c -1.41614,-2.00991 -0.25839,-5.42004 0.13713,-6.45556 0.56347,-0.45714 1.56818,-1.15776 2.22308,-0.88297 0.91328,0.39601 1.35501,2.46654 1.43103,3.54778 l -1.47675,5.21731 c -1.05042,-0.25838 -1.82705,-0.73043 -2.314,-1.43103 m 35.73321,-1.9329 -30.4344,3.54778 a 11.279358,11.279358 0 0 1 -1.23328,0.0154 l 1.32471,-4.72045 32.32256,-3.73013 c -0.92918,1.12645 -1.3396,2.42084 -1.12644,3.71474 0.10634,0.68571 0.41093,1.3247 0.83725,1.90308 -0.88296,-0.33491 -1.44594,-0.60919 -1.46183,-0.6241 z m 50.10619,-6.13558 -36.06911,5.16118 c 0.3349,-0.76123 0.44223,-1.58358 0.31951,-2.39003 -0.19777,-1.20247 -0.91328,-2.25338 -1.99451,-2.99921 l 40.31599,-5.13087 c -0.18285,3.07574 -2.04021,4.9023 -2.57288,5.35943 m -1.85736,-10.94641 -37.78834,4.67423 -26.35494,-96.64973 -10.4903,-40.60569 0.0914,-0.16745 28.42548,-1.26359 0.86806,2.75574 h -0.076 z m -8.77008,-131.13375 6.50129,-0.16746 -1.46185,6.01384 z m 6.28812,7.27742 1.79675,-7.50599 15.77321,-0.44223 -4.29311,17.96548 -15.86465,0.82235 2.6037,-10.82521 z m 17.43281,8.23691 0.91329,-3.80616 c 1.08123,0.54807 3.37983,1.61389 6.15148,2.26879 2.57288,0.6241 5.57259,0.89838 8.38895,0.10634 l -0.65489,2.77114 c -2.72544,2.72543 -11.08409,0.15204 -14.79883,-1.33962 m 17.43283,-2.90778 -1.33961,-1.12645 2.58879,-10.8252 c 0.54806,-0.13714 1.24867,-0.22857 1.56818,-0.0611 0.0298,0.0149 0.0456,0.0149 0.0611,0.0298 z m 0.28919,5.51149 4.21759,-17.56997 5.11546,2.32941 -0.83726,3.44095 0.27427,0.0611 c -0.51775,0.38061 -0.86805,0.83725 -1.03551,1.37041 l -0.10633,-0.0149 -3.47126,14.44851 z m -3.39523,33.22192 1.12644,-4.68913 c 1.38532,1.19254 4.14106,3.15176 7.8558,4.04964 1.85737,0.44223 3.9279,0.62409 6.227,0.31949 l -0.0457,-0.30458 c 0.12173,0.0149 0.24844,0.0457 0.36521,0.0611 0.48695,0.0149 0.959,-0.0458 1.43104,-0.18285 l -1.20247,3.76045 c -8.1912,4.99372 -14.4644,-1.52247 -15.75781,-3.01462 m 27.31394,3.34903 c -2.64941,0.0298 -4.99373,-2.29911 -5.00864,-2.32941 l -2.46654,-1.97912 11.60133,-0.82235 -0.86807,3.63872 c -0.9739,0.9739 -2.07052,1.47675 -3.25808,1.49216 m 29.76508,-12.4391 c -1.68942,5.00863 -5.49558,4.5982 -5.64862,4.5828 l -19.61019,1.15775 -0.0149,0.0611 -12.18022,0.86807 c 0.59378,-0.60919 1.15775,-1.33961 1.6596,-2.22308 1.49216,-2.58879 2.42085,-6.05955 2.61861,-9.78969 0.30459,-5.84638 -1.27899,-10.99266 -3.88219,-13.32157 l 5.98353,-0.22856 -0.0298,0.10633 5.29831,-0.3046 15.36229,-0.56346 c 3.76044,-0.12174 6.60761,0.95899 8.48038,3.24319 3.68443,4.47596 2.83227,12.39337 2.34532,15.34687 l -0.0299,-0.0148 z m 63.91471,2.16145 c 1.11153,-0.51775 2.04022,-1.15774 2.81735,-1.85735 l 5.06975,4.9331 -0.89837,3.71474 -1.38533,-1.05043 z m 0.0149,22.86829 1.87328,-8.43467 15.60575,-0.27429 -1.76594,7.35395 z m 18.48324,-10.29204 -16.24525,0.27428 3.06082,-5.34403 1.58359,1.20247 16.54985,-1.30931 z m 10.8098,-7.23171 -21.57388,1.72023 0.80695,-3.36493 0.0298,0.0298 21.48245,-1.43103 z m -11.37376,-16.01669 0.30459,-0.54807 v 0.12174 l 11.8145,0.76123 -0.19775,0.0914 -2.52717,8.25182 z m 19.89937,-15.02738 -1.70532,3.37983 -13.45921,-0.95899 5.83148,-7.27743 12.88033,1.32471 z m 20.93394,-0.89838 7.73455,9.19591 -10.18619,-0.79154 z m -8.8764,17.64598 17.11282,0.959 -0.42633,0.86807 -2.00992,7.42997 -17.58984,-0.82236 2.9232,-8.83069 z m -10.90172,29.03417 2.314,-9.68335 16.27556,-0.38062 -2.02481,8.40436 z m 19.00099,-11.7842 -0.0298,0.12174 -16.26066,0.39602 0.89837,-3.77635 3.63872,-4.00492 17.90486,0.82235 -0.0298,0.0914 z m 9.51541,-17.28077 0.0298,-0.54806 -17.24996,-0.97391 0.27428,-0.83725 5.03943,-5.31373 12.31786,0.94409 1.82706,2.17736 z m 4.18677,-4.64392 0.0149,-0.0149 -0.35031,-0.41093 -0.82235,-1.06582 -0.0298,0.0457 -13.27686,-15.80352 -0.12173,0.10632 -10.26173,-12.92604 -0.076,0.0914 -0.92918,-0.91328 18.49914,-0.65491 75.83654,93.92377 -17.29568,3.47126 0.0149,0.0914 c -0.16745,0.0298 -0.3349,0.0611 -0.45714,0.10633 z m 51.71015,73.1136 c -0.9898,-0.94408 -0.82235,-2.2991 -0.80694,-2.39002 l 0.28919,-3.16668 c 0.79153,-0.21366 2.45114,-0.48695 3.41063,0.41093 1.02011,0.92918 1.12644,3.03002 0.36521,6.08986 -1.46183,0.0149 -2.57289,-0.30459 -3.25809,-0.94409 m 19.21466,-2.31401 -0.21366,-0.076 -13.32157,3.09064 -0.76123,0.12174 c 0.42633,-1.9329 0.51776,-3.53288 0.25838,-4.78006 l 14.12901,-2.98431 c -0.79154,0.82234 -1.14185,1.79674 -0.9898,2.75574 0.12173,0.79154 0.59378,1.47674 1.2939,1.9945 -0.21367,-0.0611 -0.36522,-0.10633 -0.39602,-0.12173 m 24.22328,-5.49558 -15.52973,3.18206 a 2.7925108,2.7925108 0 0 0 0.0303,-1.06582 c -0.16745,-1.09614 -0.9898,-1.9945 -2.17736,-2.51226 l 17.67629,-3.5925 c 0.56347,0.95899 0.9739,2.25338 0.9739,3.9279 -0.59378,0.0611 -0.9739,0.0611 -0.9739,0.0611 m 6.40986,-1.17265 -0.10634,0.0298 c -1.3093,0.45713 -2.6643,0.71552 -3.76044,0.89837 -0.0298,-1.6596 -0.39603,-3.01462 -0.92919,-4.08044 l 18.90958,-4.00492 c -0.13714,0.10633 -0.28919,0.21366 -0.41093,0.3349 -0.83726,0.82235 -1.20247,1.82705 -1.05043,2.81736 0.076,0.50186 0.3046,0.9739 0.6241,1.37042 z m 37.57566,-7.64314 -15.36228,3.31921 c 0.10633,-0.39601 0.12174,-0.79154 0.0611,-1.19253 -0.19775,-1.30929 -1.3247,-2.36022 -2.93859,-2.75574 l 17.82834,-3.79125 c 0.66981,0.76123 0.74533,1.40123 0.74533,1.44594 l 0.0149,0.13714 0.0457,0.12174 c 0.54806,1.26359 -0.0914,2.32941 -0.39601,2.71003"
     id="path64"
     inkscape:connector-curvature="0"
     style="stroke-width:0.49688804" />
</svg>
