<?xml version="1.0" encoding="UTF-8" standalone="no"?>
<!-- Created with Inkscape (http://www.inkscape.org/) -->

<svg
   xmlns:dc="http://purl.org/dc/elements/1.1/"
   xmlns:cc="http://creativecommons.org/ns#"
   xmlns:rdf="http://www.w3.org/1999/02/22-rdf-syntax-ns#"
   xmlns:svg="http://www.w3.org/2000/svg"
   xmlns="http://www.w3.org/2000/svg"
   xmlns:sodipodi="http://sodipodi.sourceforge.net/DTD/sodipodi-0.dtd"
   xmlns:inkscape="http://www.inkscape.org/namespaces/inkscape"
   width="600"
   height="300"
   viewBox="0 0 158.75 79.375002"
   version="1.1"
   id="svg53"
   inkscape:version="0.92.5 (2060ec1f9f, 2020-04-08)"
   sodipodi:docname="ISS_Trace_black.svg">
  <defs
     id="defs47" />
  <sodipodi:namedview
     id="base"
     pagecolor="#ffffff"
     bordercolor="#666666"
     borderopacity="1.0"
     inkscape:pageopacity="0.0"
     inkscape:pageshadow="2"
     inkscape:zoom="0.98994949"
     inkscape:cx="309.77541"
     inkscape:cy="140.06035"
     inkscape:document-units="mm"
     inkscape:current-layer="layer1"
     showgrid="false"
     units="px"
     inkscape:window-width="1366"
     inkscape:window-height="715"
     inkscape:window-x="0"
     inkscape:window-y="25"
     inkscape:window-maximized="1" />
  <metadata
     id="metadata50">
    <rdf:RDF>
      <cc:Work
         rdf:about="">
        <dc:format>image/svg+xml</dc:format>
        <dc:type
           rdf:resource="http://purl.org/dc/dcmitype/StillImage" />
        <dc:title></dc:title>
      </cc:Work>
    </rdf:RDF>
  </metadata>
  <g
     inkscape:label="Layer 1"
     inkscape:groupmode="layer"
     id="layer1"
     transform="translate(0,-217.62498)">
    <path
       d="m 155.27659,273.49136 c -0.0281,-0.17722 -0.20548,-0.85402 -1.3252,-1.20846 l -20.3108,-22.40957 0.20943,-1.15613 -0.62053,-0.75332 -2.8923,0.004 -1.21661,-1.4422 a 1.2660397,1.2660397 0 0 0 -0.0121,-0.80564 c -0.18143,-0.5197 -0.68496,-0.9588 -1.49046,-1.30522 l -14.58641,-14.64685 c -0.0726,-0.33432 -0.46329,-1.74024 -1.86908,-1.94178 l -8.02036,-0.78553 c -0.0443,0 -1.05964,-0.0523 -1.22463,1.94968 l -0.004,0.004 -0.0523,-0.0605 0.1692,-1.0031 -0.008,-0.0402 c -0.008,-0.0443 -0.25771,-1.07147 -0.9708,-1.06359 l -9.40208,-0.62052 c -0.06048,-0.008 -0.205486,-0.0121 -0.370742,0.1007 -0.354439,0.2377 -0.612246,0.8339 -0.765408,1.78048 l -0.02011,0.0966 14.15508,16.80954 -6.292094,0.0281 0.974836,-4.05251 -2.944889,-0.78145 -0.108723,-1.02322 -1.699884,-0.47933 -0.74122,-2.24785 -1.518721,-0.43516 -0.366532,-2.27203 -0.978916,-0.52771 -0.862034,-1.78456 -1.353468,-0.6083 -0.680741,-1.40185 -1.47442,-0.26583 -2.296091,13.82127 1.780471,2.00227 -9.1402,0.0845 0.197204,-0.81379 c 0.140933,-0.0605 0.354439,-0.18932 0.390724,-0.41899 0.0443,-0.27398 -0.189315,-0.49143 -0.358513,-0.61633 l 0.145007,-0.60423 c 0.05653,-0.0523 0.09663,-0.1128 0.117007,-0.18537 0.09663,-0.39874 -0.507466,-0.71702 -1.043332,-0.91449 l 2.011466,-0.0443 4.588243,0.0484 -3.570417,-4.48741 -10.526009,0.31815 c -0.169198,-0.37467 -0.69678,-1.4301 -1.603253,-2.13898 l 7.658028,-4.2338 -1.059637,-1.40185 -1.043332,-1.59524 -9.188585,5.10794 -0.0523,-0.0402 c 0.1128,-0.43121 0.35851,-1.63941 -0.27793,-2.14293 -0.49563,-0.39072 -1.3294,-0.23362 -2.5418,0.48341 -0.12095,0.0684 -1.16415,0.69678 -1.06752,1.49453 0.0657,0.55585 0.6363,0.98693 1.74432,1.31731 -0.26189,0.32631 -0.89425,1.29313 -0.42701,2.43716 l -0.59621,-0.37074 0.20141,-0.84994 -1.75248,-0.57189 -0.41083,-0.82983 0.31552,-1.59918 0.0242,-0.0927 h -0.008 l 0.0121,-0.0523 -1.87737,-0.6768 -2.07062,-3.00116 -1.16415,-0.282 -1.97794,9.13627 -4.10484,0.18537 3.40792,3.0051 -0.46724,1.65164 2.43716,2.77135 -8.07675,0.0523 -6.87238,-20.99156 0.0402,0.008 -0.0845,-1.97794 -15.09414,-0.62448 -0.0806,1.71606 4.41904,22.1678 -2.58204,0.0402 -3.47247,-22.29677 0.17722,-1.72408 -15.512992,-0.3948 -0.25768,1.73223 0.87005,24.85883 4.55604,-0.24979 0.151321,1.29036 0.14501,1.30522 -0.467241,-0.004 v 0.0565 l -4.51988,0.0725 0.17722,17.55142 -1.15613,3.19442 -1.21661,4.59219 2.60636,-0.45515 -0.20549,17.05593 c -0.0162,0.0121 -0.0322,0.0162 -0.0523,0.0281 l 0.0281,0.0565 c -0.29804,0.2014 -0.91042,0.80169 -0.45922,2.18329 0.0242,0.12095 0.16118,0.60423 0.86612,0.77343 0.23769,0.0605 0.53573,0.0806 0.91449,0.0402 l 9.547232,-1.10373 c 0.41899,0.2377 2.73125,1.40987 4.79373,-0.39875 l 9.40616,-1.2287 0.0363,-0.0201 c 0.0605,-0.0363 1.37778,-0.88609 0.62053,-3.86714 l -2.53787,-15.82327 3.1622,-0.50747 3.80272,16.93904 c -0.1128,0.282 -0.51561,1.40185 -0.004,2.13505 0.31816,0.45922 0.91844,0.66063 1.78455,0.60028 l 7.93977,-0.92645 c 0.38678,0.18537 2.4975,1.09565 3.83493,-0.26991 l 9.66397,-1.38041 0.0402,-0.0322 c 0.0402,-0.0281 0.9588,-0.72912 0.8903,-2.05039 l -0.008,-0.0565 c -0.0121,-0.0281 -0.23769,-0.67272 -1.13588,-1.13063 l -11.8599,-34.35229 8.66507,-0.2256 1.63941,1.89314 -0.76935,3.20258 4.96687,-0.26189 0.66063,-0.51141 c 0.67272,0.27792 3.488511,1.34545 4.467292,0.22967 l 0.03221,-0.0402 -0.06573,0.26584 1.442206,1.41801 -0.165126,0.70494 -0.608304,0.14093 -1.558946,6.49362 0.06047,0.0806 c 0.02418,0.0281 2.106777,2.67078 4.845921,0.93053 l 0.06573,-0.0402 0.350496,-1.09172 0.741217,0.59622 c 0.09269,0.0886 0.78145,0.74121 1.615353,0.72912 0.451196,-0.004 0.854017,-0.19326 1.200303,-0.56531 l 0.04023,-0.0402 0.286076,-1.18427 4.825939,-0.29002 c 0.177218,0.0121 1.248947,0.0363 1.808739,-1.22463 0.358513,0.282 1.087636,0.84193 1.812684,1.30916 a 2.3085832,2.3085832 0 0 0 0.51562,0.31014 c 0.02418,0.0162 0.04838,0.0281 0.07257,0.0443 l 0.02813,0.0162 0.03629,0.004 c 0.0079,0 0.02813,0.008 0.06048,0.0121 l 0.157104,0.0484 c 0.849942,0.20141 1.716053,-0.13699 2.326989,-0.80985 l 0.21758,-0.18142 10.058639,-0.25768 v 0.0162 c 0.05653,-0.004 0.104777,-0.0121 0.157104,-0.0201 l 0.894247,-0.0242 1.373842,1.40987 -0.890303,1.55093 -0.725048,3.2549 5.023421,-0.43516 0.55585,-2.31647 1.74826,-1.82873 -0.0201,-0.0242 1.37779,-0.10873 -0.0162,-0.20943 0.24164,-1.01099 0.0443,-0.004 -0.0363,-0.0281 0.0201,-0.0684 -0.77751,-0.89425 0.6083,-1.99805 0.39875,-0.18537 0.96682,-2.84406 0.20943,-0.0484 0.53178,-1.05963 1.07542,-1.06753 0.70098,-2.91241 0.27398,-0.35852 2.80777,3.54084 -0.7654,2.61845 -1.43012,1.50663 -1.04741,3.1743 -1.07146,1.18033 -1.11985,4.65398 5.26504,-0.52771 0.68496,-2.85208 1.61535,-1.67977 0.66062,-2.44111 0.74122,-1.50268 13.36744,17.39024 -0.0845,0.8861 c -0.004,0.0242 -0.0765,0.58004 0.3384,0.97891 0.1571,0.15303 0.35851,0.25373 0.60423,0.31553 0.34234,0.0806 0.76541,0.0765 1.27301,-0.0201 l 3.41606,-0.79355 c 0.701,0.2377 2.05446,0.37469 2.63463,-0.64853 l 3.88331,-0.79762 c 0.13699,-0.008 0.95052,-0.0484 1.76431,-0.32209 l 3.48049,-0.6889 c 0.27398,0.0605 1.65163,0.3221 2.25179,-0.42701 l 4.33056,-0.93053 0.0443,-0.0443 c 0.0201,-0.0242 0.50352,-0.52771 0.23769,-1.19241 m -4.82594,1.78862 -0.0281,0.008 -0.0484,0.0657 c -0.31027,0.4512 -1.11985,0.43911 -1.62337,0.36653 -0.19326,-0.10478 -0.3221,-0.26188 -0.3505,-0.44699 -0.0281,-0.18931 0.0484,-0.38678 0.21758,-0.5519 0.17723,-0.18143 0.43517,-0.30212 0.72111,-0.34642 0.18931,-0.0322 0.38257,-0.0242 0.5519,0.0162 0.34235,0.0845 0.58004,0.29409 0.62053,0.5519 0.0162,0.1128 -0.004,0.22968 -0.0605,0.3384 m -6.99714,0.0565 c -0.1128,-0.17722 -0.22968,-0.3221 -0.34234,-0.42701 l 0.39874,-0.0886 0.004,0.0121 10.31237,-2.15515 c 0.28608,0.0927 0.49564,0.20548 0.64459,0.31552 z m -5.24887,1.38042 c 0.3384,0.0845 0.57609,0.2941 0.62053,0.5519 0.0281,0.18932 -0.0484,0.38678 -0.22153,0.55585 -0.17721,0.17722 -0.43121,0.29804 -0.7211,0.34234 -0.18931,0.0322 -0.37863,0.0242 -0.5519,-0.0162 -0.34235,-0.0806 -0.58004,-0.29409 -0.62053,-0.5519 -0.0281,-0.18537 0.0484,-0.38678 0.21758,-0.5519 0.17722,-0.18143 0.43516,-0.30212 0.72504,-0.34642 a 1.9720245,1.9720245 0 0 1 0.15303,-0.0162 l 0.004,0.0201 0.117,-0.0201 a 1.2502635,1.2502635 0 0 1 0.27793,0.0322 m -0.30215,-0.25376 c -0.0966,0 -0.18932,0.004 -0.28607,0.0201 -0.12884,0.0201 -0.25374,0.0565 -0.37074,0.10478 v -0.008 l -4.29021,0.9024 c -0.0605,-0.16512 -0.14501,-0.30211 -0.26189,-0.40689 -0.0201,-0.0201 -0.0443,-0.0363 -0.0657,-0.0523 l 9.12416,-1.83688 0.0121,0.0121 0.82562,-0.17722 c 0.0886,0.0565 0.25768,0.18537 0.42294,0.39875 z m -31.18389,-21.94759 0.5318,-2.40087 3.42001,0.44305 -0.5519,2.31226 z m -0.4391,0.0565 -1.75247,2.19159 -0.0121,0.0484 -0.0363,-0.004 -0.008,0.14093 -0.80564,2.51367 -0.30632,0.55585 -2.57022,0.0523 c 0.21758,-1.60733 -0.48749,-2.7674 -0.70493,-3.08161 l 0.6083,-2.53787 h -0.008 c 0.008,-0.0201 0.0162,-0.0322 0.0201,-0.0484 0.18537,-0.76541 -1.273009,-1.53884 -2.80777,-1.90537 -0.358513,-0.0886 -0.725048,-0.15303 -1.075409,-0.18932 l 0.431215,-1.79664 10.675244,-0.19326 -1.03123,1.46627 z m 1.09566,5.30528 -3.34758,-0.2135 0.0121,-0.0162 0.76935,-2.39667 3.37979,0.2377 z m -0.94657,3.35152 -5.00725,0.33433 -0.84994,-0.82168 4.93073,-0.36653 z m -6.05453,-0.68495 -0.31026,-0.29804 c 0.22152,-0.2699 0.38677,-0.52363 0.51141,-0.75725 l 3.79471,-0.16118 0.92252,0.85402 z m -2.582037,0.36654 -9.724313,0.24979 c 1.820836,-3.14209 0.269901,-5.54297 -0.463299,-6.41303 l 6.034397,-0.10477 -0.09663,0.39874 0.100705,0.0845 c 0.08454,0.0657 1.31731,1.06358 2.916492,1.45009 0.97891,0.23362 2.09074,0.2377 3.158262,-0.35049 l 0.08059,-0.0402 0.14501,-0.61633 c 0.261883,0.49958 0.608303,1.41802 0.418993,2.56206 v 0.0363 c 0,0.1007 -0.0201,2.42506 -2.570209,2.74335 m -11.198733,0.97076 c -0.02813,0.0242 -0.06047,0.0443 -0.09269,0.0657 -0.02418,0.0121 -0.04838,0.0281 -0.07257,0.0363 -0.446995,0.22968 -1.111829,0.18143 -1.38962,0.14908 -0.07652,-0.0281 -0.149085,-0.0565 -0.221525,-0.0886 a 8.4678729,8.4678729 0 0 1 -0.298038,-0.18129 c -0.684948,-0.51141 -1.023218,-1.51189 -0.777504,-2.52984 0.315523,-1.30115 1.454039,-2.14294 2.545884,-1.88132 1.087636,0.26189 1.72013,1.53082 1.409867,2.83183 -0.11701,0.47539 -0.342347,0.89425 -0.640514,1.21661 z m -4.705221,-6.0545 c -0.584113,-0.70901 -1.450094,-1.05135 -2.582037,-1.0152 l -1.377786,0.0523 c 0.09663,-0.54783 0.418989,-1.8892 1.39777,-2.65066 0.61632,-0.48341 1.409867,-0.65261 2.344473,-0.51142 l -0.4512,2.07063 -0.0039,0.0402 c -0.02011,1.07147 1.941788,1.88131 2.167258,1.96979 l 0.01617,0.004 0.01617,0.008 c 0.132781,0.0242 2.964873,0.59214 3.782605,-0.88609 0.543885,0.60422 1.925484,2.48146 0.982856,5.04746 0.14501,-1.36964 -0.600284,-2.63463 -1.796643,-2.92057 -1.317313,-0.31815 -2.686952,0.66865 -3.057559,2.19552 -0.161182,0.67272 -0.100706,1.34137 0.128839,1.90143 -0.390724,-0.282 -0.721106,-0.53981 -0.898322,-0.68075 0.108723,-0.56005 0.547828,-3.14603 -0.668649,-4.62453 m -5.635673,-0.90239 c 0.03221,-0.36654 0.193257,-0.94263 0.261885,-1.16823 l 0.04838,-0.15711 -0.06047,-0.0363 c 0.173273,-0.50352 0.684951,-1.71606 1.84897,-2.36064 0.938683,-0.52364 2.102834,-0.56006 3.457617,-0.12095 l -0.05232,0.22152 c -1.059638,-0.16513 -1.961772,0.0322 -2.682875,0.59213 -1.152057,0.89425 -1.478359,2.44111 -1.558952,2.98499 z m -4.60034,7.1946 -0.0079,-0.008 -0.0079,0.0162 c -0.08861,0.0565 -0.177221,0.1007 -0.265827,0.1249 l -0.277926,0.0201 v 0.0121 c -0.04023,-0.004 -0.07651,-0.008 -0.112798,-0.0162 -0.821676,-0.19721 -1.397772,-1.71199 -1.309163,-3.44014 0.04838,-0.92251 0.277926,-1.78047 0.640516,-2.40889 0.338397,-0.58819 0.749367,-0.9024 1.156129,-0.88084 0.04431,0.004 0.08861,0.0121 0.136991,0.0201 0.821676,0.1972 1.397772,1.70804 1.305218,3.44013 -0.04838,0.92252 -0.277923,1.78048 -0.640514,2.4089 -0.185369,0.3263 -0.398742,0.56531 -0.616323,0.71295 m -2.610302,-5.46908 0.02418,-0.10873 c 0.132784,0.0765 0.302114,0.15711 0.507471,0.20549 a 0.62315971,0.62315971 0 0 0 0.124894,0.0242 c -0.04023,0.0966 -0.07652,0.1972 -0.112803,0.29803 -0.366532,-0.10477 -0.648533,-0.23769 -0.837845,-0.35443 z m 0.431215,0.82167 c -0.108725,0.41899 -0.17722,0.87006 -0.201409,1.33743 -0.03629,0.72913 0.03628,1.42196 0.197202,2.01147 -1.268931,-0.35852 -1.655582,-0.89833 -1.744321,-1.05964 l 0.668647,-2.7795 c 0.217583,0.15303 0.571889,0.35049 1.079617,0.49143 m -1.873158,2.80369 c 0.302112,0.31815 0.890299,0.74122 2.026187,1.01914 0.18537,0.45922 0.422934,0.82983 0.712955,1.07541 -1.550932,-0.0322 -2.654607,-0.9588 -2.944892,-1.23672 z m 3.605385,-5.16013 0.0039,0.0484 c -0.463296,0.0886 -0.898324,0.4512 -1.24895,1.05543 a 3.2722458,3.2722458 0 0 0 -0.10478,0.20548 c -0.315524,-0.0281 -0.560057,-0.16118 -0.696783,-0.25373 l 0.140936,-0.59213 0.02813,-0.1128 0.817732,-3.41608 c 0.36259,0.43121 1.09566,0.82983 2.030267,1.05135 0.910418,0.22153 1.72815,0.20943 2.247844,0.004 l -0.459219,1.90945 z m -23.542073,-6.02223 -0.60028,-1.90143 35.743334,-0.65261 c -0.01617,0.0363 -0.02813,0.0726 -0.03629,0.10478 v 0.004 l -0.322096,1.47442 z m 0.96958,36.16234 -0.97484,0.12095 -7.3638,-27.54972 0.53981,-1.83293 7.98407,29.23356 z m -1.26893,0.64052 0.42293,-0.0726 11.75852,-1.45404 c 0.37864,0.20549 0.60831,0.4391 0.7332,0.61225 l -11.53713,1.46232 0.004,0.0201 a 2.2020939,2.2020939 0 0 0 -0.48748,0.0281 2.0693109,2.0693109 0 0 0 -0.4754,0.12897 l -9.33766,1.07541 c -0.0322,-0.1972 -0.0966,-0.46723 -0.2256,-0.68889 l 9.1402,-1.13063 z m 2.18736,2.44111 c -0.22559,0.22967 -0.5519,0.39072 -0.92251,0.45119 a 1.774822,1.774822 0 0 1 -0.70099,-0.0242 c -0.427,-0.1007 -0.72912,-0.36259 -0.78144,-0.68074 -0.0363,-0.23362 0.0565,-0.47934 0.26583,-0.69284 0.13278,-0.13278 0.30632,-0.24164 0.49958,-0.3221 l 0.0605,-0.008 v -0.0162 c 0.11279,-0.0443 0.23361,-0.0806 0.35851,-0.1007 0.24164,-0.0402 0.48341,-0.0322 0.70099,0.0201 0.43121,0.10478 0.72912,0.36653 0.78145,0.68495 0.0402,0.23362 -0.0523,0.47933 -0.26189,0.68889 m -9.44637,-31.34441 -0.63237,-2.79567 0.99495,0.12095 0.19721,0.77343 z m -0.7332,-3.22663 -0.68495,-3.04941 0.91041,0.21759 0.75726,2.94883 z m -0.60831,-3.46024 0.44305,-0.87427 0.26991,1.04741 z m -0.26188,-0.39875 -0.54389,-2.38484 0.75332,-0.0242 0.3384,1.32126 z m -6.96914,13.71649 0.57189,2.92058 -2.74335,0.26583 0.41084,-1.15614 z m -2.12689,1.8169 -0.41491,1.16823 -3.29762,-18.6559 2.81171,-0.0684 2.93266,15.21089 z m -10.16342,23.62223 1.51452,-0.18931 11.26722,-1.33335 c 0.0281,0.23769 0.0402,0.45514 0.0363,0.6526 l -11.35176,1.41395 c -0.27792,-0.0657 -0.58004,-0.0726 -0.87426,-0.0281 -0.2941,0.0484 -0.56794,0.14908 -0.80564,0.29409 l -11.162452,1.3857 c 0.0363,-0.23362 0.0605,-0.56795 -0.0162,-0.84994 l 11.392122,-1.35362 z m 1.88526,2.36459 c -0.2256,0.22968 -0.55191,0.39072 -0.91844,0.44699 -0.24164,0.0402 -0.48748,0.0363 -0.70493,-0.0201 -0.43122,-0.1007 -0.72913,-0.36258 -0.78145,-0.68494 -0.0363,-0.22968 0.0565,-0.47539 0.26188,-0.68496 0.2256,-0.23361 0.55191,-0.39072 0.92252,-0.45119 0.24164,-0.0402 0.48341,-0.0322 0.70493,0.0201 0.42701,0.10478 0.72912,0.36653 0.7775,0.68495 0.0402,0.23362 -0.0523,0.47933 -0.26188,0.68889 m -1.51189,-2.83577 -2.91241,-31.417 0.42293,-0.57189 3.25082,31.8962 z m -2.96881,-32.04147 -0.42701,-4.58825 0.37074,-0.59621 0.47131,4.62046 z m -0.76936,-8.25399 0.39875,-0.0443 0.24584,2.43716 -0.36653,0.58819 z m 0.81379,-0.0726 8.57226,-0.28607 0.17328,0.96682 -8.63668,0.3948 z m -0.0443,-0.43515 -0.22967,0.0281 -1.27301,0.0402 0.30632,-1.28103 2.2276,-0.0657 -0.30632,1.27301 -0.72505,0.0242 z m -1.47836,-4.20566 -1.64125,-22.29717 0.51141,0.004 2.13505,22.27666 z m -2.06808,-22.39792 1.61942,21.93418 -7.907552,0.13699 -0.78172,-22.26837 z m 1.64756,22.3491 0.004,0.0523 -1.94968,0.0322 -0.008,-0.0523 z m 0.0363,0.46724 v 0.0162 l 1.85304,-0.0162 -0.004,-0.0281 7.68196,-0.12095 0.008,0.0322 3.44013,-0.0726 -0.004,-0.0162 7.89546,-0.12489 v 0.004 l 1.43405,-0.0242 7.54102,-0.12096 0.52364,1.75642 -31.96875,0.93869 -0.32209,-2.19158 z m 8.51993,-22.57864 7.19053,0.2699 4.91862,20.94725 -7.85129,0.1692 z m 7.53707,0.282 0.35852,0.0162 5.9901,21.51138 h -0.10478 l -1.09974,0.0201 z m 6.74341,21.34612 6.88039,-0.0443 0.0363,0.10873 -6.8683,0.10872 z m 5.03524,3.89936 0.282,-1.17625 2.284,-0.0684 -0.3948,1.1723 z m -5.75647,0.18931 0.29002,-1.20031 2.73125,-0.0806 -0.28607,1.19242 z m -13.87753,0.45922 0.29804,-1.25289 13.43842,-0.3948 -0.29001,1.20451 z m -0.12884,-1.24067 -0.30211,1.25289 -4.74943,0.15711 0.30632,-1.26893 z m 17.45873,-0.51141 2.15516,-0.0605 -0.28608,1.18032 -2.15516,0.0684 z m -27.17936,0.71282 0.004,0.0845 1.88525,-0.0565 -0.31026,1.28497 -2.425071,0.0765 h -0.35812 z m 15.77882,1.26078 8.62064,-0.28607 0.21351,0.93868 -8.64483,0.31815 z m 10.46159,0.59213 -0.23769,-0.93053 7.50079,-0.24584 0.26583,0.846 z m 71.140135,-5.72827 -13.115946,-15.19866 13.176556,15.19866 z m -8.27396,-15.35586 14.61481,15.47277 -0.63631,-0.0121 -14.02675,-15.49288 z m 0.50747,-0.0684 4.53592,0.36653 14.18385,15.10624 -4.04041,0.0684 z m 5.26097,0.50747 7.29912,7.7987 -7.31542,-7.79607 z m 9.07578,15.45673 0.75726,0.0162 -0.0281,-0.0281 5.92974,-0.1007 2.20341,2.16318 -11.99227,0.24164 -2.00227,-2.20735 z m 16.2905,3.76263 -0.13278,0.74122 -0.53981,-0.54389 -5.81695,0.18537 0.0845,0.0765 -0.79354,0.0281 0.0726,-0.29409 z m 10.11912,25.41875 -20.39113,-23.73109 4.69697,-0.18932 20.00066,23.02182 z m -0.93474,0.19326 -0.64854,0.12884 -19.96832,-23.79932 0.80984,-0.0242 20.2665,23.59383 z m -26.98124,-24.83083 -1.74432,0.0484 0.40689,-1.8892 7.74243,-0.1571 -0.4512,1.87736 -0.2699,0.008 0.0281,0.0322 -5.67588,0.11701 z m -5.22061,-1.69988 3.41608,-0.12884 0.0322,0.0363 -0.399,1.8516 -3.49653,0.0927 z m 37.85012,25.27374 -19.78322,-22.77624 0.20141,-0.0121 19.83147,22.73588 z m -19.94453,-23.22336 -0.40689,-0.38258 4.68487,-0.14908 0.36653,0.36653 z m -0.94657,-0.0121 -4.80583,0.1972 -0.29804,-0.28608 4.84198,-0.17722 z m -1.57105,-0.61633 -3.7784,0.14094 0.44305,-1.84095 -0.0966,-0.0242 3.86714,-0.0806 z m -9.34568,1.04741 -0.30212,-0.3263 5.20063,-0.10873 0.39072,0.31027 z m 32.58507,22.72378 -19.8717,-22.77623 4.37882,-0.15303 19.94019,21.9986 z m -37.5881,-27.94451 2.0141,2.21958 -3.45762,0.12884 -2.11888,-2.28808 z m -1.47034,2.76741 -0.43122,1.78863 -15.561393,0.27792 -0.225597,-0.0402 -0.01209,0.0443 -4.354624,0.0765 v 0.0201 l -0.676799,0.0121 c 0.02814,-0.0605 0.05653,-0.12095 0.07257,-0.18143 0.140933,-0.5962 -0.43516,-1.24895 -1.430112,-1.71605 z m -15.343947,6.40119 0.06048,-0.20548 h -0.01209 l 0.161179,-0.66063 c 0.471315,0.50352 1.490456,0.94657 2.54181,1.2003 1.059632,0.25374 2.171194,0.3221 2.815788,0.0886 l -0.717021,2.99709 c -2.272035,1.1723 -4.88234,-0.62053 -5.426091,-1.02716 z m 2.852073,-0.0684 c -1.635463,-0.3948 -2.574149,-1.09171 -2.497502,-1.40184 0.07257,-0.31027 1.224626,-0.50747 2.860093,-0.11701 1.639408,0.3948 2.574153,1.09566 2.501583,1.40185 -0.0765,0.31026 -1.228705,0.50746 -2.864174,0.117 m -2.904394,-1.49847 -0.302115,1.26472 -0.821677,-0.20141 v -0.008 l 0.01209,0.004 0.628417,-3.412 2.771352,-0.0523 -0.422934,1.76168 c -0.958797,-0.0484 -1.744321,0.12884 -1.865141,0.64459 m -19.573525,1.71842 a 0.30632112,0.30632112 0 0 0 0.03221,-0.0845 c 0.157104,-0.65655 -0.813789,-1.41801 -2.261253,-1.7643 -0.846,-0.20141 -1.607331,-0.20548 -2.131103,-0.0402 l 0.157104,-0.65261 9.575361,-0.27792 c 0.132784,0.1007 0.495636,0.36259 1.043334,0.71703 -1.232646,-0.29804 -2.316472,-0.19721 -3.222683,0.30631 -1.228701,0.68075 -1.796645,1.90537 -2.011463,2.50579 z m 6.779821,-2.36458 c -0.402816,-0.25763 -0.71295,-0.47126 -0.922511,-0.62048 l 1.192417,-0.51561 z m 1.780476,5.11188 c -0.507468,-0.20549 -1.873163,-0.89833 -1.889202,-1.55093 l 1.380416,-6.34467 c 0.414917,0.53179 1.284973,1.02322 2.400877,1.28905 1.256837,0.30212 2.360644,0.21758 2.93266,-0.17328 l -1.389618,5.78856 c -0.366532,1.53883 -3.19047,1.03926 -3.436186,0.99101 m 8.00826,-6.75551 -0.277926,1.43406 1.969791,0.58004 -0.29002,1.65164 1.192416,0.28607 -0.483407,1.64362 -6.23988,0.10478 1.357545,-5.65183 z m 0.427009,-0.0281 1.667674,-0.0322 -0.302115,1.67175 -1.587217,-0.47131 z m -3.621427,-0.62053 c -0.112797,0.47933 -1.301141,0.75726 -2.819995,0.3948 -1.522666,-0.36653 -2.449253,-1.15613 -2.336453,-1.63021 v -0.004 c 0.1128,-0.47539 1.301141,-0.75726 2.819995,-0.39072 1.522664,0.36653 2.453198,1.15205 2.336453,1.6302 m -20.121485,1.00311 c -0.153027,0.0242 -0.277924,0.0657 -0.322096,0.0806 l -0.10478,0.0402 -0.507466,2.11888 c -1.128001,0.64459 -3.057563,-0.2941 -3.452363,-0.49958 l 0.40282,-1.67583 4.004131,-0.1128 z m -4.560115,0.0765 h 0.15303 l -1.03123,4.29415 -0.18932,0.14501 z m 0.0765,2.07457 c 0.28608,0.14093 0.886102,0.41899 1.57105,0.58412 0.608307,0.14908 1.281028,0.2014 1.857124,0 l -0.173276,0.7211 0.181428,0.14908 c -1.490462,0.40691 -3.259106,-0.45512 -3.633526,-0.64851 z m 5.224557,-2.21958 13.390044,-0.37469 -1.990034,0.86205 -9.716297,0.27792 z m 3.693996,2.2276 c 1.224624,0.2941 2.046433,0.92251 1.99398,1.30114 l -0.05232,-0.0281 -0.04838,0.20548 c -0.302112,0.27398 -1.212532,0.37863 -2.280055,0.1249 -1.135885,-0.27398 -1.921539,-0.8339 -1.990034,-1.21661 l 0.03221,-0.13699 -0.02011,-0.004 c 0.145007,-0.35851 1.152057,-0.53981 2.364586,-0.24584 m 1.748269,3.8511 0.467236,-1.92956 1.208455,0.7211 c -0.07651,0.26189 -0.209426,0.76541 -0.237694,1.13983 l -0.596206,0.0363 z m 26.288786,4.27802 c 0.16118,-0.33839 0.23362,-0.61632 0.25767,-0.78959 l 2.45716,-0.0523 0.75726,0.69678 z m 10.15542,-9.11601 -3.39189,-0.4391 0.99101,-1.41395 1.03124,-0.0162 0.91042,0.95881 0.17327,-0.004 0.56532,0.5519 z m -0.62448,-1.82872 5.20062,-0.13699 0.45922,0.44699 -5.15618,0.18143 z m 6.68293,0.8861 20.04103,24.48821 -0.40282,0.0886 -19.83949,-24.56486 z m 0.30632,-0.282 4.12495,-0.0966 20.11728,23.98469 -4.02819,0.80985 z m 15.98839,-2.35657 -6.84004,0.18537 0.0657,-0.27399 3.82704,-0.10872 h 2.78765 z m -3.39189,-0.60029 -3.27908,0.0927 0.18931,-0.80985 -0.18142,0.004 -0.36259,-0.35443 2.61845,-0.13279 z m -1.08763,-2.1311 c 0.0765,0.22152 0.0523,0.40689 0.0201,0.51562 l -2.96881,0.14908 -1.43406,-1.40592 3.60933,-0.0605 c 0.40282,0.23769 0.66865,0.51141 0.77343,0.80169 m -1.45824,-1.20846 -4.68093,0.0806 -14.02938,-14.98909 4.20567,0.3384 z m -24.14838,-17.18023 8.00432,0.78144 c 0.95472,0.13279 1.32941,0.96274 1.46232,1.39777 l -10.21588,-0.82153 c 0.16512,-1.34953 0.74937,-1.35754 0.74937,-1.35754 m 12.59256,17.37419 -4.38276,0.0726 -13.978377,-16.12157 4.080777,0.27793 z m -24.121683,-18.21612 9.462563,0.62448 c 0.3384,-0.004 0.52364,0.5519 0.56795,0.70098 l -0.12095,0.70901 -10.526021,-0.7211 c 0.249794,-1.28103 0.628423,-1.30916 0.616326,-1.31337 m -0.386781,1.74419 4.978969,0.34234 14.002437,16.22189 -4.97081,0.0806 z m 13.974306,17.0479 -0.004,0.0162 2.11887,-0.0363 2.11887,2.28808 -23.23138,0.29409 c -0.02418,-0.008 -0.04838,-0.0162 -0.07257,-0.0201 -1.25289,-0.30211 -2.35657,-0.21758 -2.932663,0.17327 l -36.661772,0.66471 0.0121,0.0363 -1.27695,0.0443 0.39479,-1.16823 -0.0201,-0.004 0.0966,-0.004 -0.64458,-2.16725 0.21758,-0.004 v -0.0121 l 7.50088,-0.0485 v 0.008 h 11.97216 l -0.0039,0.0121 3.343503,0.004 -0.01209,-0.0201 31.292085,-0.004 v -0.0281 z m -50.114925,-0.35449 h -1.28905 l 3.20257,-13.03167 1.36963,0.49563 z m 7.59755,-6.9932 0.59213,-0.0242 v 0.004 l 1.623373,2.17528 v 0.008 l 0.712952,0.86204 -2.473445,0.14093 -0.0765,-1.14404 -0.8903,-0.14908 0.29409,-0.94263 -1.29417,-0.59844 0.0657,-0.27398 1.37384,-0.0523 0.16512,0.1007 z m 5.962085,-0.3384 0.01209,0.0363 0.05233,-0.004 1.442207,1.65164 c -0.560057,-0.18537 -1.321255,-0.31027 -2.086665,-0.0565 -0.781447,0.26583 -1.397773,0.88084 -1.84095,1.83293 l -0.910418,-1.09974 c 0.02418,-0.29001 0.173273,-1.37384 0.970761,-1.99397 0.576094,-0.44305 1.36556,-0.56795 2.360645,-0.36654 m 5.398087,3.40793 -1.772454,0.0402 -1.192416,-1.32941 -0.02011,-0.0201 -1.820836,-2.08246 5.494586,-0.16513 2.457143,3.48852 -2.420987,0.0523 c -0.249793,-0.0201 -0.507471,-0.0242 -0.725049,0.0162 m 0.934736,3.10186 c 0.503524,0.12095 1.10381,0.18537 1.752476,0.10478 l -0.165124,0.6768 -3.263043,-0.0886 0.298038,-1.22871 c 0.273981,0.15303 0.757256,0.38678 1.377788,0.53573 m -1.885258,-0.20946 c -0.286072,0.008 -1.079616,0.12489 -1.804664,1.02716 h -3.46419 l -1.031235,-1.46626 c -0.0079,-0.008 -0.443052,-0.78145 -0.394803,-1.8169 l 0.02814,0.0121 c 0.40282,-1.08763 0.999159,-1.76825 1.772454,-2.03026 1.172303,-0.39875 2.412971,0.28607 2.594264,0.3948 l 1.224629,1.36556 0.0039,0.0806 h 0.06837 l 0.991008,1.10381 c -0.05653,0.0684 -0.104778,0.15303 -0.117007,0.25373 -0.02011,0.18143 0.06837,0.3505 0.26583,0.51142 z m -10.417282,-3.59329 0.0565,0.81773 -0.89832,0.0523 0.23361,-0.97076 z m -1.16415,1.29706 4.237745,-0.24163 -0.858094,3.56502 h -4.177411 z m 3.806791,3.32352 0.672725,-2.78765 c 0.07257,0.8903 0.422933,1.49848 0.446992,1.54686 l 0.878208,1.24066 z m 7.323445,-3.47247 0.902396,-0.0201 -0.19326,0.80985 z m -11.307596,-3.87122 0.0927,-0.37863 0.56794,0.3505 z m -0.26582,1.08764 0.90239,0.41492 -0.22152,0.709 -0.0121,-0.004 -0.0443,0.18932 -0.0484,0.1571 h 0.0121 l -0.25768,1.06358 -0.2135,0.0121 -0.8903,3.71398 -0.99496,0.004 z m 37.801734,2.47345 -0.910418,3.7784 h -2.57415 l 0.942626,-4.45126 z m -2.856019,-1.03531 -0.03221,-0.008 -1.023218,4.82186 h -1.711801 l 1.297067,-5.94986 1.385676,0.3948 z m -1.796648,-1.43012 -0.0322,-0.008 -1.365564,6.25198 h -2.426772 l 1.998054,-8.60066 1.156134,0.33038 z m -2.229567,-2.47384 0.0039,0.004 -2.026193,8.7132 h -0.789598 l 2.441104,-10.99733 z m -1.293122,-2.82394 0.551903,0.29804 -2.493558,11.24317 H 87.07262 l 2.811711,-13.14026 z m -5.913445,9.3336 2.199465,-13.20889 0.854017,0.14908 0.652608,1.34545 1.071467,0.48341 -2.86009,13.37401 z m -12.939109,2.21155 c 0.463293,-0.45514 0.910418,-0.57188 1.148112,-0.60028 l -0.145011,0.60028 z m 5.317365,-1.29706 c -0.0039,0.0281 -0.100705,0.0927 -0.205486,0.12489 -1.748263,0.34235 -3.214661,-0.57188 -3.359671,-0.66864 l -0.01617,-0.0121 c -0.197199,-0.12884 -0.201409,-0.1972 -0.201409,-0.1972 0,-0.0322 0.09269,-0.10478 0.185373,-0.14094 l 0.104777,-0.0363 0.19326,-0.81379 c 0.479332,0.3505 1.35754,0.57189 1.494533,0.60423 0.132782,0.0322 0.954723,0.22152 1.534758,0.14908 l -0.149084,0.62053 0.120951,0.0806 c 0.294095,0.18932 0.298037,0.28608 0.298037,0.29002 m -1.57499,-2.08245 c 0.833906,0.20141 1.349523,0.49563 1.462323,0.6363 l -0.0443,-0.0121 -0.0079,0.0281 c -0.213506,0.0657 -0.773427,0.0726 -1.538838,-0.1128 -0.833903,-0.20141 -1.353463,-0.49563 -1.466265,-0.64051 0.02011,-0.008 0.04838,-0.0162 0.08059,-0.0242 l 0.692841,-0.0121 c 0.237693,0.0201 0.511408,0.0657 0.821677,0.13699 m 6.574202,-0.59621 -3.335353,-0.0322 v -0.0162 l -0.390721,0.008 h -0.177221 v 0.008 l -0.567944,0.0121 -2.45714,-3.49653 4.03634,-0.12095 z m -13.716338,-3.8029 c -0.986933,-0.14501 -1.796645,0.0242 -2.408891,0.49958 -0.688895,0.53981 -0.962744,1.33742 -1.06358,1.85712 l -1.273009,-1.70383 c 0.0402,-0.282 0.24164,-1.31337 1.055429,-1.96177 0.551902,-0.44305 1.281028,-0.62447 2.167255,-0.5519 0.769353,0.53573 1.281028,1.38567 1.522667,1.86106 m 5.148297,-7.47266 0.777504,1.02716 -7.351707,4.06855 c -0.269904,-0.41491 -1.015198,-1.40592 -2.231676,-1.69988 -0.0079,-0.004 -0.01617,-0.004 -0.02813,-0.008 -0.108725,-0.0242 -0.213503,-0.0402 -0.322099,-0.0523 l 8.314447,-4.62046 z m -11.943898,3.99203 c -0.92251,-0.2699 -1.43405,-0.6083 -1.47836,-0.97483 -0.0523,-0.447 0.60423,-0.93474 0.86611,-1.08764 1.00705,-0.59213 1.74433,-0.77343 2.07063,-0.51562 0.4391,0.34642 0.22152,1.44221 0.10071,1.83293 l -0.0402,0.14094 0.0605,0.0484 c -0.45515,0.12489 -0.92251,0.35049 -1.39777,0.67272 -0.0657,-0.0684 -0.13279,-0.10478 -0.18143,-0.1128 z m 0.25374,0.56532 c 0.60422,-0.43516 1.18847,-0.70494 1.75247,-0.79762 l 0.008,0.008 0.0162,-0.008 c 0.3384,-0.0565 0.66865,-0.0443 0.982856,0.0281 0.01209,0 0.02011,0.004 0.02813,0.004 0.958798,0.22968 1.603256,0.98286 1.893144,1.39777 -0.825619,-0.004 -1.526741,0.20943 -2.082456,0.65261 -0.777504,0.62053 -1.059634,1.51189 -1.164154,1.98596 l -0.99101,0.0402 -0.45922,-0.53179 c -1.24895,-1.45009 -0.0363,-2.7231 0.0162,-2.7795 m -0.83784,2.74729 -0.32631,1.34952 h -0.004 l -1.86514,6.60234 h -0.71703 l 2.19946,-8.39504 z m -2.42914,-1.93758 1.54685,0.50747 -2.46135,9.38197 h -2.20735 l 2.77556,-10.58241 z m -9.91771,2.82 2.98499,-0.13279 -0.51141,2.31227 z m 2.35236,4.18016 0.47934,-1.68805 -0.0322,-0.0242 0.0242,0.004 0.84192,-3.7947 -0.0201,-0.004 1.70383,-7.86312 0.59213,0.14501 1.96585,2.848 -3.20257,13.05178 z m -6.70317,2.42914 -6.86028,0.0443 -5.90161,-20.90294 6.00626,0.2256 z m -6.7154,-22.06302 0.0402,1.0152 -0.14909,-0.004 -0.0765,-0.0201 0.004,0.0162 -14.16755,-0.53179 0.0523,-1.06357 z m -9.96609,22.69539 7.86312,-0.1692 0.0484,0.20141 -7.87942,0.12489 z m -11.05385,0.33432 -0.0121,-0.12884 7.64974,-0.13278 0.0201,0.14093 z m 7.57321,-0.6807 -7.62555,0.13699 -2.0889,-21.79324 6.38081,0.17721 z m -3.25016,-23.06612 -0.117,1.16823 -14.743652,-0.4069 0.1692,-1.13588 z m -14.087222,23.85969 5.756471,-0.1007 -0.0605,0.0523 h -0.12489 l 0.004,0.10873 -1.405921,1.20845 -4.11693,0.2256 z m 4.596131,1.4501 1.04741,-0.9024 0.306321,2.11888 -1.067521,1.23672 -0.10873,-0.97484 z m 0.37469,3.28303 -0.004,-0.0402 0.50352,0.004 3.162211,-0.10478 0.0966,1.06358 -8.781692,0.37074 -0.0121,-1.21253 z m -5.176171,20.33513 -0.83811,0.14896 0.78552,-2.17528 z m -0.96275,0.59213 0.97077,-0.16919 0.0845,3.37571 -1.99805,0.35049 z m 1.51452,3.12593 -0.0443,0.008 -0.17721,-7.02133 h -0.0162 l -0.1571,-15.3279 8.817972,-0.37468 3.60539,38.89755 -11.545152,1.36963 0.004,0.0201 c -0.0242,-0.0242 -0.0484,-0.0443 -0.0765,-0.0684 -0.16118,-0.12492 -0.36653,-0.15712 -0.61632,-0.1048 z m -0.69678,19.75089 -0.008,-0.0402 c -0.46329,-1.40592 0.33038,-1.75247 0.36259,-1.76824 l 0.12884,-0.0484 0.004,-0.0162 c 0.1571,-0.0565 0.27792,-0.0605 0.34234,-0.008 0.18537,0.14093 0.14909,0.72912 0.0657,1.08763 l -0.41492,1.21663 c -0.42701,-0.13278 -0.47538,-0.41083 -0.47933,-0.42293 m 11.073842,-0.60831 -0.0657,-0.0402 -9.683962,1.12406 c -0.145,0.0121 -0.2699,0.0162 -0.38678,0.0162 l 0.34642,-1.00705 10.735442,-1.33743 c -0.1972,0.27399 -0.27398,0.58412 -0.2256,0.8861 0.0565,0.36259 0.29804,0.67273 0.65655,0.87427 -0.78552,-0.14501 -1.32941,-0.48749 -1.37778,-0.51562 m 13.89356,-1.63547 -9.44244,1.23265 -0.0443,0.0443 c -0.0966,0.0845 -0.19326,0.16118 -0.29002,0.23362 0.1571,-0.25373 0.22152,-0.53179 0.17327,-0.80984 -0.0443,-0.28608 -0.20141,-0.53179 -0.4391,-0.72505 l 10.63473,-1.3252 c -0.10478,0.88609 -0.48748,1.26078 -0.59214,1.34952 m 0.5197,-2.83998 -11.17047,1.3252 -3.94773,-38.73636 8.66508,-0.3948 3.10988,17.59572 -0.0565,0.008 0.74122,4.0324 0.0322,-0.008 2.50579,15.61384 c 0.0523,0.19721 0.0886,0.38678 0.12095,0.56531 m -2.36499,-16.87646 -0.49958,-2.70299 0.10872,-0.30632 2.97697,-0.28608 0.54783,2.7916 z m 3.59723,-0.57609 -0.0523,0.008 -1.25289,-6.38082 -0.0966,0.0201 0.0886,-0.10478 -2.70299,-14.01453 8.66087,-0.31552 0.36653,1.60325 -0.0523,0.10071 0.0765,0.0162 1.6302,7.20262 -0.004,0.0162 0.0523,0.1972 0.20549,0.91042 0.0363,-0.008 7.08587,26.50232 -9.44638,1.16823 v 0.0121 c -0.22968,-0.0886 -0.48749,-0.0484 -0.76936,0.11701 z m 3.81887,19.30377 c -0.37469,-0.53179 -0.0684,-1.43405 0.0363,-1.70803 0.14909,-0.12096 0.41492,-0.30633 0.58819,-0.23362 0.24164,0.10477 0.35851,0.6526 0.37863,0.93868 l -0.39072,1.38041 c -0.27793,-0.0684 -0.48341,-0.19326 -0.61225,-0.37862 m 9.45441,-0.51142 -8.05243,0.93869 a 2.9843301,2.9843301 0 0 1 -0.32631,0.004 l 0.3505,-1.24896 8.55201,-0.98693 c -0.24585,0.29804 -0.35444,0.64052 -0.29804,0.98286 0.0281,0.18143 0.10873,0.3505 0.22152,0.50353 -0.23361,-0.0886 -0.38257,-0.16119 -0.38677,-0.16513 z m 13.25726,-1.62337 -9.54328,1.36556 c 0.0886,-0.20141 0.11701,-0.41899 0.0845,-0.63236 -0.0523,-0.31815 -0.24164,-0.59621 -0.52772,-0.79354 l 10.66694,-1.35754 c -0.0484,0.81379 -0.5398,1.29706 -0.68074,1.41801 m -0.49142,-2.89623 -9.99817,1.23672 -6.97308,-25.57192 -2.77556,-10.7436 0.0242,-0.0443 7.52091,-0.33433 0.22968,0.72913 h -0.0201 z m -2.32042,-34.69583 1.72013,-0.0443 -0.38678,1.59116 z m 1.66373,1.92548 0.47539,-1.98596 4.17333,-0.117 -1.13589,4.75336 -4.19752,0.21758 0.6889,-2.86417 z m 4.61243,2.17935 0.24164,-1.00704 c 0.28608,0.14501 0.89425,0.42701 1.627582,0.60028 0.680742,0.16513 1.474415,0.2377 2.219577,0.0281 l -0.173273,0.7332 c -0.721106,0.7211 -2.932666,0.0402 -3.915526,-0.35444 m 4.612438,-0.76935 -0.354438,-0.29804 0.68495,-2.86417 c 0.145008,-0.0363 0.330378,-0.0605 0.414915,-0.0162 0.0079,0.004 0.01206,0.004 0.01617,0.008 z m 0.07652,1.45825 1.115904,-4.64873 1.353466,0.61633 -0.221525,0.91042 0.07257,0.0162 c -0.136988,0.1007 -0.229672,0.22152 -0.273979,0.36258 l -0.02813,-0.004 -0.918438,3.82284 z m -0.898321,8.78997 0.298037,-1.24066 c 0.366533,0.31552 1.095656,0.8339 2.078514,1.07146 0.491429,0.11701 1.039257,0.16513 1.64756,0.0845 l -0.01209,-0.0806 c 0.03221,0.004 0.06573,0.0121 0.09663,0.0162 0.128839,0.004 0.253736,-0.0121 0.37863,-0.0484 l -0.318154,0.99496 c -2.167255,1.32125 -3.827039,-0.40282 -4.169254,-0.79762 m 7.226813,0.8861 c -0.700989,0.008 -1.321257,-0.60831 -1.325202,-0.61633 l -0.652606,-0.52364 3.069519,-0.21758 -0.229677,0.96274 c -0.257678,0.25768 -0.547825,0.39073 -0.862034,0.39481 m 7.875336,-3.29119 c -0.446993,1.3252 -1.454039,1.21661 -1.494531,1.21254 l -5.18853,0.30632 -0.0039,0.0162 -3.222683,0.22968 c 0.157104,-0.16119 0.306321,-0.35444 0.439102,-0.58819 0.394801,-0.68496 0.640517,-1.60326 0.692841,-2.5902 0.08059,-1.54686 -0.338399,-2.90848 -1.027163,-3.52467 l 1.583143,-0.0605 -0.0079,0.0281 1.401844,-0.0806 4.064606,-0.14908 c 0.99495,-0.0322 1.748264,0.25373 2.243768,0.85809 0.974838,1.18427 0.749371,3.27908 0.620532,4.06054 l -0.0079,-0.004 z m 16.910767,0.57189 c 0.294092,-0.13699 0.539808,-0.30632 0.745423,-0.49143 l 1.341376,1.30522 -0.2377,0.98286 -0.36653,-0.27793 z m 0.0039,6.05057 0.495639,-2.23168 4.12904,-0.0726 -0.46724,1.94574 z m 4.890369,-2.72311 -4.298234,0.0726 0.809844,-1.41394 0.41899,0.31816 4.37883,-0.34642 z m 2.8601,-1.91339 -5.70811,0.45515 0.21351,-0.89031 0.008,0.008 5.68391,-0.37862 z m -3.00931,-4.23775 0.0806,-0.14501 v 0.0322 l 3.12592,0.2014 -0.0523,0.0242 -0.66865,2.18331 z m 5.26504,-3.976 -0.4512,0.89425 -3.56108,-0.25374 1.54291,-1.92548 3.40792,0.35049 z m 5.53877,-0.2377 2.04644,2.43309 -2.6951,-0.20943 z m -2.34854,4.66884 4.52776,0.25373 -0.1128,0.22968 -0.53179,1.96586 -4.65398,-0.21759 0.77343,-2.33646 z m -2.88442,7.68196 0.61225,-2.56205 4.30624,-0.1007 -0.53573,2.22365 z m 5.02735,-3.1179 -0.008,0.0322 -4.30229,0.10478 0.23769,-0.99916 0.96274,-1.05963 4.73733,0.21758 -0.008,0.0242 z m 2.51762,-4.57221 0.008,-0.14501 -4.56405,-0.25768 0.0726,-0.22152 1.33335,-1.40593 3.2591,0.24979 0.48341,0.5761 z m 1.10775,-1.22871 0.004,-0.004 -0.0927,-0.10872 -0.21758,-0.282 -0.008,0.0121 -3.51284,-4.18135 -0.0322,0.0281 -2.71509,-3.42001 -0.0201,0.0242 -0.24584,-0.24164 4.89456,-0.17328 20.06509,24.85067 -4.57615,0.91844 0.004,0.0242 c -0.0443,0.008 -0.0886,0.0162 -0.12095,0.0281 z m 13.68164,19.34466 c -0.26188,-0.24978 -0.21758,-0.6083 -0.2135,-0.63236 l 0.0765,-0.83785 c 0.20943,-0.0565 0.64853,-0.12885 0.9024,0.10873 0.2699,0.24584 0.29804,0.80169 0.0966,1.61127 -0.38678,0.004 -0.68075,-0.0806 -0.86204,-0.24979 m 5.08388,-0.61224 -0.0565,-0.0201 -3.52467,0.81773 -0.2014,0.0322 c 0.1128,-0.51142 0.13699,-0.93474 0.0684,-1.26473 l 3.7383,-0.78961 c -0.20943,0.21758 -0.30212,0.4754 -0.26189,0.72914 0.0322,0.20942 0.15711,0.39072 0.34235,0.52771 -0.0565,-0.0162 -0.0966,-0.0281 -0.10478,-0.0322 m 6.40907,-1.45405 -4.1089,0.84193 a 0.73885182,0.73885182 0 0 0 0.008,-0.28201 c -0.0443,-0.29002 -0.26188,-0.52771 -0.57609,-0.6647 l 4.67685,-0.95052 c 0.14909,0.25374 0.25768,0.59621 0.25768,1.03926 -0.1571,0.0162 -0.25768,0.0162 -0.25768,0.0162 m 1.69594,-0.31026 -0.0281,0.008 c -0.34642,0.12095 -0.70493,0.18931 -0.99495,0.23769 -0.008,-0.4391 -0.10478,-0.79762 -0.24585,-1.07962 l 5.00316,-1.05963 c -0.0363,0.0281 -0.0765,0.0565 -0.10872,0.0886 -0.22153,0.21758 -0.31816,0.48341 -0.27793,0.74542 0.0201,0.13279 0.0806,0.25768 0.16513,0.3626 z m 9.9419,-2.02225 -4.06461,0.87821 c 0.0281,-0.10478 0.0322,-0.20943 0.0162,-0.31553 -0.0523,-0.34641 -0.35049,-0.62447 -0.7775,-0.72912 l 4.71708,-1.0031 c 0.17722,0.20141 0.1972,0.37074 0.1972,0.38257 l 0.004,0.0363 0.0121,0.0322 c 0.145,0.33433 -0.0242,0.61632 -0.10478,0.71703"
       id="path64"
       inkscape:connector-curvature="0"
       style="stroke-width:0.1314683" />
  </g>
</svg>
